<svg width="141" height="52" viewBox="0 0 141 52" fill="none" xmlns="http://www.w3.org/2000/svg">
<path d="M18.202 34.737a11.245 11.245 0 0 0 6.77-1.029 6.81 6.81 0 0 0-.043.772 7.648 7.648 0 0 0 1.51 4.552 7.68 7.68 0 0 0 3.928 2.764l-7.598 7.588h3.045l7.252-7.243a5.521 5.521 0 0 1 3.59 1.76 5.494 5.494 0 0 1 1.454 3.717v1.761h2.17v-1.756a7.648 7.648 0 0 0-1.487-4.508 7.68 7.68 0 0 0-3.864-2.77l3.21-3.202a10.784 10.784 0 0 0 2.102-2.945 3.287 3.287 0 0 1 2.201 1.02 3.27 3.27 0 0 1 .897 2.25h2.15a5.426 5.426 0 0 0-1.276-3.482 5.45 5.45 0 0 0-3.218-1.854 10.837 10.837 0 0 0-2.855-10.286l-.17-.17 3.769-3.794a6.033 6.033 0 0 0 0-8.534 6.428 6.428 0 0 0-8.483-.383l-.039.029L15.96 26.203l-3.026 2.993a7.839 7.839 0 0 1 1.07-9.757l8.473-8.451a1.168 1.168 0 0 1 1.654 0l.355.354h3.04L25.65 9.469a3.325 3.325 0 0 0-4.183-.417L16.85 4.448a6.979 6.979 0 0 0-9.855 0l-.763.756 6.133 6.138h3.045L9.34 5.268a4.84 4.84 0 0 1 5.963.674l4.572 4.56-7.417 7.419a9.976 9.976 0 0 0-1.1 12.813l-.087.087-3.439 3.43a7.92 7.92 0 0 0-1.26 9.563h2.67a5.77 5.77 0 0 1 .112-8.044l3.405-3.396 5.015 5.007a4.686 4.686 0 0 1 0 6.632l-5.355 5.371h3.054l3.862-3.881a6.842 6.842 0 0 0 0-9.67l-1.133-1.096Zm20.915-5.264a8.602 8.602 0 0 1-2.548 6.137l-4.378 4.367a5.516 5.516 0 0 1-3.644-1.733 5.49 5.49 0 0 1-1.483-3.745 5.034 5.034 0 0 1 1.309-3.362l.428-.427 7.588-7.544.175.174a8.613 8.613 0 0 1 2.548 6.133h.005ZM14.36 30.788l2.889-2.863.2-.199 1.235-1.223L34.652 10.58a4.23 4.23 0 0 1 5.55.281 3.883 3.883 0 0 1 1.146 2.752 3.875 3.875 0 0 1-1.146 2.75l-4.548 4.532-8.6 8.51a8.576 8.576 0 0 0-.286.3l-.375.38a9.03 9.03 0 0 1-6.416 2.648 8.973 8.973 0 0 1-5.608-1.94" fill="#00546F"></path>
</svg>
