<svg width="141" height="52" viewBox="0 0 141 52" fill="none" xmlns="http://www.w3.org/2000/svg">
<path d="M139.167 30.04C137.963 29.9872 137.351 29.9864 136.415 29.7313C136.001 29.6181 135.789 29.1598 135.973 28.7706C136.179 28.3336 136.352 27.9023 136.49 27.4772C136.647 26.9968 137.218 26.8012 137.636 27.0835C138.139 27.4232 138.133 27.5746 138.534 27.845C139.074 28.2047 139.463 28.7006 139.712 29.093C139.975 29.508 139.675 30.0562 139.185 30.0405C139.179 30.0405 139.173 30.04 139.167 30.04ZM134.592 28.2303C133.904 28.5959 133.05 28.4424 132.538 27.8539C132.535 27.8501 132.531 27.8463 132.528 27.8425C132.525 27.8387 132.521 27.8344 132.518 27.8306C132.122 27.3646 132.137 26.6761 132.537 26.2129C132.635 26.099 132.747 25.9821 132.873 25.8695C133.014 25.7432 133.175 25.6343 133.336 25.5433C133.958 25.1899 134.756 25.4778 135.002 26.15C135.005 26.1569 135.007 26.1632 135.009 26.1701C135.089 26.4562 135.144 26.7913 135.18 27.0635C135.24 27.5117 135.04 27.9627 134.653 28.1953C134.633 28.2078 134.613 28.2192 134.592 28.2303ZM107.116 30.5643C106.724 30.5473 106.374 30.5009 106.064 30.424C106.022 29.9357 105.978 29.5169 105.931 29.1699C105.859 28.6486 105.721 28.0299 105.517 27.3151C105.324 26.7253 105.229 26.3989 105.231 26.336C105.239 26.1645 105.49 25.9631 105.986 25.733C106.61 25.4464 107.305 25.3201 108.072 25.3533C108.931 25.3911 110.31 25.7733 112.206 26.5001C113.153 26.8628 114.923 27.5728 115.722 27.8952C115.865 27.9526 115.86 28.1568 115.715 28.2072C114.136 28.7516 108.56 30.6272 107.116 30.5643ZM140.281 26.6021C139.852 26.0021 139.012 25.3218 137.76 24.5606C137.087 24.1555 136.519 23.7506 136.056 23.347C135.93 23.237 136.026 23.0315 136.191 23.0591C136.484 23.1094 136.691 23.117 136.814 23.0822C136.987 23.0584 136.992 22.9326 136.83 22.7063C136.741 22.5926 136.196 22.2423 135.195 21.6564C135.038 21.5646 134.89 21.4803 134.752 21.4022C134.114 21.044 133.308 21.3702 133.1 22.0726C133.028 22.3172 132.951 22.5962 132.872 22.91C132.869 22.9283 132.866 22.946 132.864 22.9635C132.813 23.4087 132.668 23.8369 132.398 24.1945C131.969 24.7597 131.589 25.3639 131.256 26.0072C130.76 26.9666 130.501 27.7136 130.477 28.2461C130.451 28.8579 130.577 29.366 130.857 29.7708C125.087 32.641 119.807 30.5191 119.357 29.9902C119.003 29.5727 118.981 29.0101 119.528 28.9875H119.549C119.643 28.9918 119.748 29.0119 119.864 29.0484C119.865 29.0492 119.866 29.0492 119.867 29.0497C119.998 29.0905 120.14 29.0441 120.223 28.9347C120.356 28.7605 120.569 28.451 120.802 28.0053C120.806 27.9972 120.81 27.9891 120.815 27.9807C121.088 27.4559 120.78 26.8146 120.199 26.7007C119.272 26.5178 117.916 26.2147 116.805 25.8198C116.614 25.7525 116.42 25.6823 116.221 25.6074C115.98 25.5182 115.731 25.423 115.478 25.3239C111.858 23.8777 109.516 23.1314 108.452 23.0848C107.295 23.0345 106.348 23.3463 105.614 24.021C104.846 24.7409 104.435 25.7363 104.38 27.0056C104.36 27.461 104.495 28.1261 104.786 29.002C104.944 29.52 105.07 29.9864 105.165 30.4022C104.23 30.1386 103.505 29.6402 102.989 28.9068C102.351 28.0784 101.947 26.7573 101.775 24.9428C101.418 21.9757 100.982 20.4806 100.465 20.4581C100.309 20.451 100.056 21.0369 99.7073 22.2147C99.325 23.7996 98.4768 24.5644 97.163 24.5063C97.0658 24.502 96.9767 24.5134 96.8939 24.5385C96.434 24.5002 96.1082 24.3373 95.9168 24.0512C95.7826 23.8884 95.6295 23.6149 95.4584 23.2306C95.3774 22.929 95.2908 22.7761 95.1966 22.7717C95.1339 22.7692 94.9865 23.1 94.7536 23.7651C94.5691 24.4008 94.4752 24.7655 94.4706 24.8591C94.4752 24.7655 94.7002 25.3566 95.1458 26.6327C95.592 27.9084 95.7991 28.9145 95.7669 29.6508C95.7556 29.9022 95.5153 30.2135 95.0442 30.5856C93.6826 31.6256 93.7699 31.6766 91.6806 32.5122C89.0001 33.6194 86.5725 34.125 84.3986 34.0298C82.5677 33.9502 81.1445 33.437 80.1282 32.4896C79.1119 31.5419 78.6354 30.316 78.7015 28.8115C78.7253 28.2575 78.8288 27.6408 79.0121 26.961C79.142 26.478 79.3058 26.0054 79.4908 25.5407C79.7799 24.8163 79.8702 24.4378 79.7637 24.4051C79.5014 24.3001 79.108 24.8634 78.5848 26.097C78.0074 27.4853 77.6887 28.8536 77.6297 30.201C77.5533 31.9726 77.9836 33.4124 78.923 34.5217C79.9966 35.7773 83.8721 38.4002 90.5579 35.3598C93.7403 33.9124 95.5662 32.4607 96.0793 31.1013C96.515 30.0707 96.7263 28.6567 96.7119 26.8572C97.3688 26.839 97.968 26.6254 98.5107 26.2139C99.1187 25.7538 99.521 25.1432 99.7187 24.3825C99.9161 23.6213 100.047 23.2425 100.109 23.2451C100.203 23.2496 100.285 23.5274 100.355 24.0801C100.71 26.3733 100.942 28.0556 101.052 29.1288C101.643 31.373 103.094 32.6172 105.406 32.8612C105.407 32.9026 105.41 32.9442 105.412 32.9868C105.423 33.4426 105.5 33.6734 105.64 33.6798C105.79 33.6861 105.908 33.4251 105.995 32.8962C105.998 32.8731 106.002 32.8493 106.006 32.8247L106.429 32.8429C108.263 32.829 110.798 32.186 114.035 30.9138C114.925 30.5473 115.709 30.2335 116.389 29.972C116.788 30.8687 117.461 31.6269 118.407 32.2473C119.862 33.1377 126.219 34.8378 132.462 31.2309C133.001 31.4584 133.984 31.7294 135.413 32.0424C136.78 32.3222 137.752 32.4744 138.331 32.5003C139.098 32.5335 139.69 32.2532 140.107 31.6588C140.562 30.941 140.809 30.1199 140.849 29.1943C140.897 28.0972 140.707 27.2332 140.281 26.6021Z" fill="#214186"/>
<path d="M116.731 32.5541L115.5 31.6092C115.24 31.4091 114.868 31.4588 114.669 31.7191L113.726 32.9521C113.527 33.2131 113.576 33.5858 113.835 33.7851L115.066 34.7308C115.326 34.9302 115.698 34.881 115.898 34.6207L116.841 33.3872C117.04 33.1269 116.991 32.754 116.731 32.5541Z" fill="#214186"/>
<path d="M100.301 29.3549L99.0709 28.41C98.8107 28.2099 98.4386 28.2596 98.2391 28.5198L97.2959 29.7529C97.0972 30.0139 97.1461 30.3865 97.4058 30.5867L98.6368 31.5316C98.8965 31.731 99.2686 31.6818 99.4681 31.4215L100.411 30.1879C100.611 29.9277 100.561 29.5548 100.301 29.3549Z" fill="#214186"/>
<path d="M100.253 31.8344L99.0219 30.8895C98.7622 30.6894 98.3901 30.7391 98.1906 30.9993L97.2474 32.2324C97.048 32.4934 97.0976 32.866 97.3573 33.0654L98.5883 34.0111C98.848 34.2105 99.2201 34.1613 99.4196 33.901L100.363 32.6674C100.562 32.4072 100.513 32.0343 100.253 31.8344Z" fill="#214186"/>
<path d="M92.8542 24.0092L91.6237 23.0643C91.3634 22.8642 90.9913 22.9139 90.7918 23.1741L89.8487 24.4072C89.65 24.6682 89.6988 25.0408 89.9585 25.2402L91.1895 26.1859C91.4493 26.3853 91.8214 26.336 92.0208 26.0758L92.964 24.8422C93.1635 24.582 93.1139 24.2091 92.8542 24.0092Z" fill="#214186"/>
<path d="M94.4355 46.6974C94.4147 46.7238 94.3884 46.7671 94.3565 46.8283C94.3251 46.8886 94.2988 46.9193 94.278 46.9193C94.2458 46.9193 94.2051 46.9041 94.155 46.8752C94.1054 46.8463 94.0671 46.8212 94.0408 46.8004C94.0145 46.7791 93.9699 46.7501 93.9064 46.7131C93.8431 46.6766 93.8117 46.6471 93.8117 46.6263C93.8117 46.5944 93.8287 46.5553 93.8631 46.5074C93.897 46.4604 93.9198 46.4232 93.9304 46.3968C93.9461 46.3755 93.9725 46.3389 94.0094 46.2862C94.0459 46.2334 94.0697 46.207 94.0803 46.207C94.1066 46.207 94.1461 46.2258 94.1988 46.2623C94.2509 46.2994 94.2856 46.3227 94.3013 46.3334C94.3069 46.3334 94.3213 46.3415 94.3446 46.3572C94.3684 46.3729 94.3934 46.3887 94.4198 46.4049C94.4461 46.4206 94.4712 46.4376 94.4944 46.4559C94.5182 46.4749 94.5301 46.4894 94.5301 46.4993C94.5301 46.5264 94.5182 46.5591 94.4944 46.5987C94.4712 46.6383 94.4511 46.671 94.4355 46.6974ZM93.7484 47.9317C93.712 47.9786 93.6763 48.0342 93.6424 48.0976C93.6079 48.161 93.5766 48.2272 93.5477 48.2957C93.5181 48.3642 93.4961 48.4301 93.4804 48.4931C93.4649 48.5565 93.4566 48.6118 93.4566 48.6589C93.4566 48.781 93.4961 48.8677 93.5753 48.9205C93.6538 48.9735 93.7565 48.9999 93.8826 48.9999C94.0039 48.9999 94.1287 48.9773 94.2578 48.9319C94.3866 48.8872 94.4932 48.8307 94.578 48.7622C94.5671 48.678 94.5382 48.6036 94.4906 48.5407C94.4436 48.4773 94.3853 48.4233 94.3167 48.3787C94.2484 48.3332 94.1737 48.2957 94.0922 48.2635C94.0107 48.232 93.9304 48.2057 93.8512 48.1844C93.7986 48.1686 93.7646 48.1491 93.7484 48.1252C93.7327 48.1014 93.7252 48.0712 93.7252 48.0342C93.7252 48.0075 93.7327 47.9738 93.7484 47.9317ZM93.9147 47.3858C93.9509 47.4279 93.9699 47.4726 93.9699 47.5205C93.9699 47.5304 93.9666 47.5494 93.9618 47.5758C93.9568 47.6022 93.9378 47.6362 93.9064 47.6783C94.0327 47.7153 94.1524 47.7655 94.2661 47.8285C94.379 47.8919 94.4775 47.9667 94.5623 48.0542C94.6456 48.141 94.7126 48.2371 94.763 48.3429C94.8131 48.4484 94.8382 48.5615 94.8382 48.6831C94.8382 48.9413 94.7354 49.1432 94.5301 49.2883C94.3251 49.4331 94.0616 49.5059 93.7409 49.5059C93.5885 49.5059 93.4578 49.4499 93.35 49.3393C93.2422 49.2287 93.188 49.0841 93.188 48.9047C93.188 48.715 93.2465 48.4892 93.3619 48.2282C93.4773 47.9667 93.6619 47.6864 93.9147 47.3858ZM93.7484 46.8475C93.7327 46.879 93.7095 46.9244 93.6776 46.9822C93.6462 47.0401 93.6173 47.069 93.591 47.069C93.5647 47.069 93.5249 47.055 93.4723 47.0256C93.4196 46.9967 93.3801 46.9716 93.3538 46.9508C93.3275 46.935 93.2842 46.9074 93.2239 46.8678C93.1629 46.8283 93.1328 46.7973 93.1328 46.7765C93.1328 46.7501 93.1485 46.7118 93.1807 46.6616C93.2121 46.6119 93.2358 46.5736 93.2515 46.5472C93.2672 46.5264 93.2923 46.4894 93.3262 46.4364C93.3606 46.3836 93.3827 46.3572 93.3933 46.3572C93.4196 46.3572 93.4591 46.3755 93.5118 46.4125C93.5647 46.4495 93.6009 46.4736 93.6224 46.4835C93.6272 46.4835 93.6424 46.4916 93.6657 46.5074C93.6895 46.5231 93.7145 46.5396 93.7409 46.5553C93.7672 46.5711 93.7922 46.588 93.8155 46.6063C93.8393 46.6251 93.8512 46.6395 93.8512 46.6502C93.8512 46.6816 93.8381 46.7161 93.8117 46.7527C93.7854 46.7897 93.7646 46.8212 93.7484 46.8475Z" fill="#010101"/>
<path d="M96.7099 48.8177C96.6202 48.6303 96.5266 48.4763 96.4294 48.3568C96.3322 48.2368 96.241 48.177 96.157 48.177C96.0836 48.177 96.014 48.2198 95.9482 48.3058C95.8823 48.3921 95.8307 48.4687 95.7937 48.5367C95.8464 48.5988 95.9112 48.6485 95.9876 48.685C96.0636 48.7216 96.1426 48.7497 96.2243 48.7705C96.3058 48.7913 96.3886 48.8045 96.4734 48.8096C96.5575 48.8152 96.6359 48.8177 96.7099 48.8177ZM96.8126 49.3395C96.639 49.3288 96.4747 49.3118 96.319 49.288C96.1641 49.2647 96.0271 49.2314 95.9087 49.1893C95.79 49.1472 95.6965 49.0919 95.6282 49.0234C95.5599 48.9547 95.5259 48.8679 95.5259 48.7624C95.5259 48.6833 95.5467 48.5831 95.5887 48.4618C95.6307 48.3406 95.6859 48.2203 95.755 48.1016C95.8226 47.9827 95.9036 47.8814 95.9952 47.7972C96.0874 47.713 96.1859 47.6709 96.2914 47.6709C96.3648 47.6709 96.44 47.7062 96.5167 47.7764C96.5924 47.8475 96.6653 47.9393 96.7336 48.0519C96.802 48.1645 96.8648 48.2901 96.9232 48.4291C96.981 48.5673 97.028 48.7026 97.065 48.8334H97.2857C97.3862 48.8334 97.4571 48.8573 97.4991 48.9057C97.5411 48.9542 97.5624 49.0133 97.5624 49.0825C97.5624 49.1571 97.5411 49.2208 97.4991 49.2718C97.4571 49.3225 97.3862 49.3476 97.2857 49.3476H97.0493C97.0073 49.6061 96.9232 49.8539 96.7964 50.0916C96.6704 50.3285 96.5154 50.516 96.3309 50.653C96.2575 50.7057 96.1654 50.7491 96.0547 50.7831C95.9444 50.8178 95.8522 50.8371 95.778 50.843C95.6414 50.8536 95.489 50.8503 95.3206 50.8346C95.1521 50.8189 94.9913 50.7976 94.8389 50.7712C94.7812 50.7504 94.7642 50.724 94.7873 50.6925C94.8113 50.6606 94.844 50.6423 94.8865 50.6372C95.0176 50.6266 95.1495 50.6065 95.2812 50.5776C95.4123 50.5487 95.5383 50.5127 95.6601 50.4706C95.7178 50.445 95.7849 50.4102 95.8616 50.3681C95.9375 50.326 96.0228 50.2651 96.1175 50.186C96.181 50.1388 96.2469 50.0797 96.3152 50.0087C96.3836 49.9369 96.4494 49.8633 96.5122 49.7867C96.5757 49.7098 96.6334 49.6337 96.6861 49.5571C96.7387 49.481 96.7807 49.408 96.8126 49.3395Z" fill="#010101"/>
<path d="M97.2783 48.8416C97.715 48.8366 98.0426 48.8297 98.261 48.8216C98.4792 48.814 98.623 48.8046 98.6913 48.7939C98.7703 48.7939 98.8161 48.814 98.8293 48.8536C98.8425 48.8931 98.8495 48.9416 98.8495 48.9994C98.8495 49.0687 98.8412 49.1252 98.8255 49.1699C98.8098 49.2145 98.7653 49.2477 98.6913 49.2685C98.6493 49.2741 98.5703 49.2805 98.4547 49.2886C98.3387 49.2962 98.2101 49.3043 98.0676 49.3119C97.9259 49.32 97.7821 49.3282 97.6373 49.3358C97.493 49.3439 97.373 49.3477 97.2783 49.3477C97.2044 49.3477 97.1416 49.3239 97.0887 49.2767C97.0361 49.229 97.0098 49.1686 97.0098 49.0943C97.0098 49.0207 97.0361 48.9604 97.0887 48.9127C97.1416 48.8655 97.2044 48.8416 97.2783 48.8416Z" fill="#010101"/>
<path d="M99.9252 50.4235C99.8599 50.2759 99.8272 50.128 99.8272 49.9809C99.8272 49.8333 99.8548 49.6904 99.9102 49.5535C99.9654 49.4162 100.044 49.295 100.147 49.1892C100.249 49.0842 100.372 48.9995 100.514 48.9366C100.656 48.8731 100.814 48.8417 100.987 48.8417C101.045 48.8417 101.093 48.8561 101.13 48.8851C101.166 48.914 101.185 48.9812 101.185 49.0867C101.185 49.1869 101.163 49.2529 101.118 49.2843C101.074 49.3163 101.031 49.3371 100.989 49.3477C100.691 49.3477 100.46 49.4162 100.295 49.5535C100.13 49.6904 100.048 49.8779 100.048 50.1148C100.048 50.2203 100.066 50.318 100.102 50.4078C100.137 50.4976 100.177 50.5869 100.223 50.6769C100.233 50.7033 100.244 50.7241 100.254 50.7399C100.264 50.7561 100.269 50.7744 100.269 50.7952C100.269 50.8215 100.251 50.8611 100.214 50.9139C100.172 50.9717 100.142 51.0138 100.123 51.041C100.105 51.0668 100.082 51.08 100.056 51.08C100.029 51.08 99.9872 51.0617 99.9295 51.0247C99.814 50.9461 99.7151 50.851 99.6333 50.7399C99.5518 50.6293 99.486 50.5065 99.4364 50.372C99.3863 50.2373 99.3498 50.0953 99.326 49.9451C99.3022 49.7947 99.2903 49.6433 99.2903 49.4906C99.2903 49.4005 99.2916 49.3069 99.2939 49.2095C99.2971 49.1121 99.3035 49.0258 99.3141 48.9523C99.2556 49.0421 99.1822 49.1144 99.0926 49.1699C99.0035 49.2252 98.8691 49.258 98.6904 49.2686C98.622 49.2686 98.563 49.2503 98.5129 49.2133C98.4626 49.1768 98.4375 49.1207 98.4375 49.0472C98.4375 48.9731 98.4626 48.9127 98.5129 48.8655C98.563 48.8178 98.622 48.7937 98.6904 48.7937C98.8898 48.7831 99.0744 48.7214 99.2432 48.6083C99.4113 48.4947 99.5564 48.3222 99.6766 48.0903C99.6981 48.0424 99.7244 48.0186 99.7558 48.0186C99.7928 48.0186 99.811 48.05 99.811 48.1134C99.811 48.1563 99.8004 48.1979 99.7796 48.24C99.69 48.4462 99.6285 48.6398 99.5938 48.8214C99.5599 49.0038 99.5429 49.1661 99.5429 49.3082C99.5429 49.503 99.5789 49.7024 99.6503 49.9056C99.7219 50.1085 99.8136 50.2815 99.9252 50.4235Z" fill="#010101"/>
<path d="M100.987 48.8416C101.424 48.8366 101.752 48.8297 101.97 48.8216C102.188 48.814 102.332 48.8046 102.4 48.7939C102.479 48.7939 102.525 48.814 102.538 48.8536C102.551 48.8931 102.558 48.9416 102.558 48.9994C102.558 49.0687 102.55 49.1252 102.534 49.1699C102.519 49.2145 102.474 49.2477 102.4 49.2685C102.358 49.2741 102.279 49.2805 102.164 49.2886C102.048 49.2962 101.919 49.3043 101.777 49.3119C101.635 49.32 101.491 49.3282 101.346 49.3358C101.202 49.3439 101.082 49.3477 100.987 49.3477C100.913 49.3477 100.851 49.3239 100.798 49.2767C100.745 49.229 100.719 49.1686 100.719 49.0943C100.719 49.0207 100.745 48.9604 100.798 48.9127C100.851 48.8655 100.913 48.8416 100.987 48.8416Z" fill="#010101"/>
<path d="M103.601 46.2384C103.58 46.2648 103.554 46.3081 103.522 46.3693C103.491 46.4297 103.465 46.4596 103.443 46.4596C103.412 46.4596 103.371 46.4451 103.321 46.4162C103.271 46.3873 103.233 46.3622 103.207 46.3414C103.18 46.3201 103.136 46.2911 103.072 46.2541C103.009 46.2176 102.978 46.1882 102.978 46.1674C102.978 46.1354 102.995 46.0963 103.029 46.0484C103.063 46.0015 103.086 45.9642 103.096 45.9378C103.112 45.9165 103.138 45.88 103.175 45.8272C103.212 45.7744 103.236 45.748 103.246 45.748C103.273 45.748 103.312 45.7663 103.364 45.8034C103.417 45.8404 103.452 45.8637 103.467 45.8744C103.472 45.8744 103.487 45.8825 103.511 45.8982C103.534 45.9139 103.559 45.9297 103.586 45.9459C103.612 45.9616 103.637 45.9786 103.66 45.9969C103.684 46.0159 103.696 46.0304 103.696 46.0403C103.696 46.0674 103.684 46.1001 103.66 46.1397C103.637 46.1793 103.617 46.212 103.601 46.2384ZM102.693 47.6624C102.693 47.7517 102.7 47.8235 102.714 47.8755C102.726 47.9285 102.749 47.9694 102.78 47.9983C102.812 48.0277 102.855 48.0473 102.911 48.0579C102.966 48.0686 103.035 48.0736 103.12 48.0736C103.231 48.063 103.335 48.0391 103.436 48.0026C103.362 47.8393 103.285 47.7127 103.203 47.6229C103.121 47.5331 103.044 47.4884 102.97 47.4884C102.917 47.4884 102.865 47.511 102.812 47.5556C102.76 47.6003 102.72 47.6361 102.693 47.6624ZM102.299 49.1022C102.299 49.0652 102.303 49.015 102.311 48.9521C102.318 48.8884 102.349 48.8356 102.401 48.7935C102.685 48.7829 102.936 48.7646 103.152 48.7382C103.367 48.7119 103.512 48.6855 103.586 48.6591C103.586 48.6484 103.585 48.6076 103.581 48.5363C103.579 48.4653 103.575 48.4163 103.57 48.3899C103.501 48.4326 103.404 48.4691 103.278 48.5006C103.152 48.5328 103.027 48.5485 102.907 48.5485C102.743 48.5485 102.619 48.498 102.532 48.3981C102.445 48.2981 102.401 48.1637 102.401 47.9945C102.401 47.8524 102.429 47.7203 102.484 47.599C102.54 47.4775 102.607 47.3707 102.685 47.2789C102.764 47.1866 102.845 47.1143 102.926 47.0615C103.008 47.0085 103.075 46.9821 103.128 46.9821C103.228 46.9821 103.321 47.0293 103.408 47.1242C103.495 47.2193 103.571 47.3355 103.637 47.4727C103.702 47.6097 103.754 47.756 103.791 47.9115C103.828 48.0673 103.846 48.2083 103.846 48.3347C103.846 48.4087 103.838 48.4869 103.822 48.5678C103.807 48.6502 103.786 48.7263 103.759 48.7973C103.733 48.8684 103.699 48.9308 103.657 48.9835C103.615 49.0363 103.567 49.0728 103.515 49.0941C103.472 49.1098 103.411 49.1268 103.329 49.1456C103.248 49.1639 103.155 49.1809 103.052 49.1966C102.95 49.2128 102.842 49.2273 102.729 49.2407C102.616 49.2539 102.507 49.2633 102.401 49.2684C102.36 49.2732 102.331 49.2575 102.318 49.2205C102.306 49.1839 102.299 49.1444 102.299 49.1022ZM102.914 46.3886C102.899 46.42 102.875 46.4654 102.844 46.5233C102.812 46.5811 102.783 46.61 102.757 46.61C102.731 46.61 102.691 46.5955 102.638 46.5666C102.586 46.5377 102.546 46.5126 102.52 46.4918C102.493 46.4761 102.45 46.4476 102.389 46.4081C102.329 46.3693 102.299 46.3383 102.299 46.3175C102.299 46.2911 102.315 46.2528 102.346 46.2026C102.378 46.1529 102.401 46.1146 102.418 46.0882C102.433 46.0674 102.458 46.0304 102.492 45.9774C102.527 45.9246 102.549 45.8982 102.559 45.8982C102.586 45.8982 102.625 45.9165 102.678 45.9535C102.731 45.9905 102.767 46.0147 102.788 46.0245C102.793 46.0245 102.808 46.0327 102.832 46.0484C102.855 46.0641 102.881 46.0798 102.907 46.0963C102.933 46.1121 102.958 46.1291 102.982 46.1473C103.005 46.1661 103.017 46.1805 103.017 46.1912C103.017 46.2227 103.004 46.2572 102.978 46.2937C102.951 46.3307 102.931 46.3622 102.914 46.3886Z" fill="#010101"/>
<path d="M105.812 47.9628C105.722 47.9943 105.644 48.0577 105.575 48.1528C105.564 48.2056 105.56 48.2426 105.56 48.2634C105.56 48.3847 105.605 48.4664 105.697 48.5085C105.789 48.5508 105.891 48.5721 106.001 48.5721C106.059 48.5721 106.117 48.5615 106.175 48.5399C106.233 48.5194 106.283 48.4978 106.325 48.4773C106.267 48.3243 106.189 48.1998 106.092 48.1049C105.994 48.01 105.901 47.9628 105.812 47.9628ZM105.986 47.5674C106.091 47.578 106.187 47.6321 106.273 47.7295C106.361 47.8271 106.435 47.9403 106.499 48.0696C106.561 48.1987 106.61 48.3294 106.645 48.4616C106.679 48.593 106.696 48.701 106.696 48.7852C106.696 48.928 106.678 49.0769 106.64 49.2322C106.604 49.3882 106.553 49.5373 106.487 49.6794C106.421 49.8219 106.342 49.9546 106.25 50.0792C106.157 50.2025 106.059 50.3042 105.954 50.3836C105.869 50.447 105.765 50.4942 105.638 50.5256C105.512 50.5576 105.404 50.5733 105.314 50.5733C105.177 50.5733 105.036 50.5665 104.888 50.5538C104.741 50.5401 104.599 50.5231 104.462 50.5023C104.425 50.486 104.406 50.4678 104.406 50.447C104.406 50.4257 104.417 50.4087 104.438 50.3955C104.459 50.3823 104.483 50.3729 104.509 50.3678C104.641 50.3572 104.774 50.3364 104.907 50.3042C105.042 50.273 105.167 50.2357 105.283 50.1936C105.346 50.1672 105.416 50.1345 105.492 50.0949C105.568 50.0553 105.654 49.9987 105.749 49.9244C105.817 49.8717 105.888 49.8044 105.962 49.7228C106.036 49.6408 106.107 49.5553 106.175 49.4661C106.243 49.3763 106.304 49.2877 106.356 49.2007C106.409 49.1135 106.449 49.0361 106.475 48.9676C106.464 48.9098 106.451 48.8557 106.435 48.8053C106.42 48.755 106.407 48.7142 106.396 48.6828C106.375 48.7992 106.315 48.8801 106.218 48.928C106.121 48.9752 106.017 48.9991 105.906 48.9991C105.738 48.9991 105.602 48.9582 105.496 48.8763C105.391 48.7946 105.338 48.6696 105.338 48.5004C105.338 48.4111 105.354 48.3137 105.386 48.2081C105.417 48.1024 105.46 48.0037 105.515 47.9114C105.571 47.8188 105.639 47.7409 105.721 47.678C105.803 47.6146 105.891 47.578 105.986 47.5674Z" fill="#010101"/>
<path d="M109.321 46.5548C109.3 46.5812 109.273 46.6245 109.242 46.6857C109.211 46.746 109.184 46.776 109.163 46.776C109.131 46.776 109.091 46.7615 109.04 46.7326C108.99 46.7037 108.953 46.6786 108.926 46.6578C108.9 46.6365 108.855 46.6075 108.792 46.5705C108.729 46.534 108.697 46.5046 108.697 46.4838C108.697 46.4518 108.714 46.412 108.749 46.3648C108.783 46.3171 108.805 46.2806 108.816 46.2542C108.832 46.2329 108.858 46.1964 108.894 46.1436C108.931 46.0908 108.955 46.0645 108.966 46.0645C108.992 46.0645 109.032 46.0827 109.084 46.1198C109.136 46.1568 109.171 46.1801 109.187 46.1908C109.192 46.1908 109.206 46.1989 109.23 46.2146C109.254 46.2303 109.279 46.2461 109.305 46.2623C109.332 46.278 109.357 46.295 109.38 46.3133C109.404 46.3323 109.416 46.3468 109.416 46.3567C109.416 46.383 109.404 46.4165 109.38 46.4561C109.357 46.4957 109.337 46.5284 109.321 46.5548ZM108.618 48.5247C108.702 48.5247 108.793 48.5184 108.891 48.5052C108.988 48.492 109.084 48.4644 109.178 48.4228C109.163 48.3134 109.153 48.2008 109.147 48.0856C109.142 47.9712 109.134 47.8563 109.123 47.7412C109.071 47.7833 109.013 47.8343 108.95 47.8939C108.887 47.9542 108.825 48.0179 108.764 48.0856C108.704 48.1536 108.65 48.2247 108.603 48.2977C108.555 48.3705 108.524 48.4436 108.508 48.5164C108.529 48.5222 108.566 48.5247 108.618 48.5247ZM108.634 46.705C108.618 46.7364 108.594 46.7818 108.563 46.8396C108.532 46.8975 108.503 46.9264 108.476 46.9264C108.45 46.9264 108.411 46.9119 108.358 46.883C108.305 46.8541 108.266 46.829 108.239 46.8074C108.213 46.7917 108.17 46.7641 108.109 46.7245C108.048 46.6857 108.018 46.6547 108.018 46.6339C108.018 46.6075 108.034 46.5692 108.065 46.519C108.098 46.4693 108.121 46.431 108.137 46.4046C108.153 46.3831 108.178 46.3468 108.212 46.2938C108.246 46.241 108.268 46.2146 108.279 46.2146C108.305 46.2146 108.345 46.2329 108.397 46.2699C108.45 46.307 108.486 46.3311 108.508 46.341C108.513 46.341 108.528 46.3491 108.551 46.3648C108.575 46.3805 108.6 46.3962 108.626 46.412C108.652 46.4277 108.677 46.4454 108.701 46.4637C108.725 46.4825 108.737 46.4969 108.737 46.5071C108.737 46.5391 108.724 46.573 108.697 46.6101C108.671 46.6471 108.65 46.6786 108.634 46.705ZM109.266 48.8722C109.255 48.8459 109.244 48.8383 109.234 48.8492C109.113 48.9118 108.983 48.961 108.844 48.995C108.704 49.0295 108.574 49.0465 108.453 49.0465C108.411 49.0465 108.362 49.0427 108.306 49.0346C108.251 49.027 108.199 49.0151 108.149 48.9993C108.099 48.9831 108.057 48.9623 108.022 48.9359C107.988 48.9095 107.971 48.8756 107.971 48.8334C107.971 48.7383 108.008 48.6303 108.082 48.5082C108.156 48.3875 108.249 48.2637 108.36 48.1366C108.472 48.0103 108.594 47.8891 108.726 47.7734C108.858 47.657 108.986 47.5545 109.108 47.4647V47.401C109.108 47.3168 109.128 47.2364 109.17 47.1603C109.211 47.0837 109.277 47.0187 109.37 46.966C109.385 47.003 109.397 47.0799 109.404 47.1955C109.412 47.3117 109.421 47.4695 109.431 47.6701C109.442 47.8916 109.459 48.0851 109.483 48.2518C109.507 48.4177 109.543 48.5559 109.593 48.6668C109.643 48.7774 109.712 48.8611 109.798 48.9164C109.885 48.9717 110 48.9993 110.142 48.9993C110.268 48.9993 110.35 49.0245 110.386 49.0742C110.423 49.1244 110.442 49.1868 110.442 49.2604C110.442 49.3344 110.42 49.3935 110.374 49.4382C110.33 49.4828 110.253 49.5054 110.142 49.5054C109.921 49.5054 109.742 49.4514 109.605 49.3433C109.468 49.235 109.355 49.078 109.266 48.8722Z" fill="#010101"/>
<path d="M114.017 48.6032C113.991 48.5453 113.949 48.4845 113.89 48.4216C113.832 48.3579 113.767 48.3001 113.693 48.2473C113.619 48.1945 113.541 48.1512 113.457 48.1167C113.372 48.0827 113.288 48.0657 113.204 48.0657C113.13 48.0657 113.05 48.0852 112.963 48.1248C112.876 48.1643 112.79 48.2133 112.706 48.2711C112.622 48.329 112.542 48.3894 112.466 48.453C112.389 48.5164 112.322 48.5743 112.265 48.627C112.196 48.6849 112.133 48.7447 112.075 48.8051C112.017 48.866 111.959 48.9251 111.901 48.9829C111.954 48.9936 112.104 48.9987 112.351 48.9987C112.472 48.9987 112.604 48.9923 112.746 48.9791C112.888 48.9659 113.033 48.9446 113.18 48.9157C113.327 48.8868 113.474 48.8472 113.619 48.7967C113.763 48.7473 113.896 48.6823 114.017 48.6032ZM111.436 49.418C111.351 49.4022 111.267 49.3601 111.183 49.2916C111.099 49.2232 111.051 49.1465 111.041 49.0621C111.03 49.1785 110.952 49.281 110.806 49.3708C110.66 49.4601 110.45 49.5047 110.174 49.5047C110.1 49.5047 110.037 49.4842 109.983 49.4413C109.931 49.3992 109.904 49.3406 109.904 49.267C109.904 49.1922 109.931 49.1288 109.983 49.076C110.037 49.0233 110.1 48.9969 110.174 48.9969C110.37 48.9969 110.535 48.9773 110.667 48.937C110.799 48.8974 110.892 48.8541 110.946 48.8064C110.924 48.7584 110.901 48.6938 110.874 48.6113C110.847 48.5296 110.832 48.4748 110.826 48.4485C110.826 48.4277 110.837 48.4063 110.858 48.385C110.89 48.3429 110.923 48.3072 110.958 48.2783C110.992 48.2486 111.022 48.2209 111.049 48.1945C111.07 48.1788 111.082 48.1707 111.088 48.1707C111.099 48.1707 111.109 48.192 111.12 48.2341C111.146 48.3396 111.175 48.4518 111.207 48.5679C111.238 48.6844 111.28 48.7643 111.333 48.8064C111.375 48.8378 111.423 48.8673 111.475 48.8936C111.527 48.92 111.599 48.9383 111.688 48.9489C111.751 48.8698 111.816 48.7919 111.882 48.7145C111.947 48.6377 112.014 48.5623 112.083 48.488C112.162 48.4038 112.255 48.3094 112.363 48.2065C112.471 48.1032 112.584 48.0053 112.702 47.9122C112.821 47.8199 112.94 47.743 113.062 47.6821C113.182 47.621 113.299 47.5908 113.409 47.5908C113.562 47.5908 113.709 47.6426 113.851 47.7456C113.993 47.8488 114.109 47.9612 114.198 48.0832C114.288 48.1895 114.333 48.3107 114.333 48.4485C114.333 48.4748 114.325 48.5152 114.309 48.5679C114.293 48.6207 114.275 48.6762 114.253 48.7346C114.233 48.7932 114.208 48.8485 114.179 48.9013C114.15 48.9548 114.125 48.991 114.104 49.0126L114.064 49.0364C114.211 49.0207 114.359 49.0063 114.506 48.9931C114.654 48.9791 115.813 48.9647 115.939 48.9489C115.97 48.9439 115.997 48.9502 116.018 48.9692C116.039 48.9872 116.057 49.0113 116.073 49.0403C116.089 49.0697 116.1 49.0986 116.104 49.1275C116.109 49.1572 116.113 49.1823 116.113 49.2031C116.113 49.2615 116.101 49.3104 116.077 49.3502C116.053 49.3898 116.007 49.4149 115.939 49.4256C115.739 49.4469 114.474 49.4639 114.186 49.4771C113.9 49.491 113.599 49.4999 113.283 49.5047H112.959C112.838 49.5047 112.714 49.5022 112.588 49.4974H112.327C112.201 49.4974 112.078 49.4928 111.956 49.4854C111.835 49.4771 111.717 49.4684 111.601 49.4575C111.596 49.4684 111.581 49.4961 111.558 49.5407C111.534 49.5854 111.517 49.6186 111.507 49.6394C111.448 49.7343 111.386 49.782 111.317 49.782C111.291 49.782 111.272 49.7797 111.262 49.7739C111.293 49.7054 111.322 49.6419 111.348 49.5841C111.375 49.5263 111.404 49.471 111.436 49.418Z" fill="#010101"/>
<path d="M117.005 48.5091C116.952 48.5091 116.901 48.5342 116.851 48.5844C116.801 48.6349 116.755 48.6889 116.713 48.7468C116.85 48.8097 116.998 48.8637 117.159 48.9084C117.319 48.9535 117.452 48.9789 117.558 48.9837C117.536 48.9309 117.505 48.8756 117.463 48.8178C117.421 48.76 117.373 48.7085 117.32 48.6638C117.267 48.6184 117.213 48.5821 117.159 48.5525C117.103 48.5235 117.052 48.5091 117.005 48.5091ZM118.805 48.9994C118.862 48.9994 118.911 49.0146 118.951 49.0436C118.99 49.0725 119.01 49.1448 119.01 49.2604C119.01 49.4238 118.941 49.5057 118.805 49.5057C118.652 49.5057 118.487 49.4887 118.311 49.4547C118.135 49.4202 117.973 49.3477 117.826 49.2371C117.805 49.3165 117.769 49.3804 117.719 49.4309C117.669 49.4811 117.613 49.5057 117.549 49.5057C117.487 49.5057 117.411 49.4956 117.325 49.4743C117.237 49.4535 117.147 49.4258 117.052 49.3913C116.958 49.3573 116.861 49.3178 116.764 49.2724C116.666 49.2277 116.576 49.1818 116.491 49.1341C116.423 49.229 116.346 49.2987 116.259 49.3442C116.172 49.3888 116.063 49.4164 115.931 49.4271C115.889 49.4322 115.853 49.4202 115.825 49.3913C115.796 49.3622 115.781 49.2868 115.781 49.1656C115.781 49.1235 115.796 49.0788 115.825 49.0316C115.853 48.9837 115.889 48.9573 115.931 48.9522C116.015 48.9467 116.089 48.9284 116.152 48.8969C116.215 48.8662 116.271 48.8279 116.318 48.7838C116.365 48.7392 116.406 48.6882 116.441 48.6303C116.475 48.5733 116.51 48.5129 116.547 48.45C116.615 48.3242 116.695 48.2161 116.787 48.1243C116.88 48.0332 116.978 47.9873 117.084 47.9873C117.163 47.9873 117.252 48.0406 117.352 48.1481C117.452 48.2552 117.544 48.382 117.628 48.5286C117.665 48.5865 117.712 48.6423 117.771 48.6978C117.828 48.7523 117.903 48.8021 117.995 48.8467C118.088 48.8909 118.198 48.9279 118.327 48.9568C118.456 48.985 118.615 48.9994 118.805 48.9994Z" fill="#010101"/>
<path d="M118.806 48.9998C119.242 48.9948 119.57 48.9879 119.788 48.9798C120.007 48.9722 120.15 48.9628 120.219 48.9521C120.298 48.9521 120.344 48.9722 120.357 49.0118C120.37 49.0513 120.377 49.0998 120.377 49.1576C120.377 49.2269 120.369 49.2834 120.353 49.3281C120.337 49.3727 120.293 49.4059 120.219 49.4267C120.177 49.4323 120.098 49.4387 119.982 49.4468C119.866 49.4544 119.737 49.4625 119.595 49.4701C119.453 49.4782 119.309 49.4864 119.165 49.494C119.02 49.5021 118.9 49.5059 118.806 49.5059C118.732 49.5059 118.669 49.482 118.616 49.4349C118.563 49.3872 118.537 49.3268 118.537 49.2525C118.537 49.1789 118.563 49.1185 118.616 49.0709C118.669 49.0237 118.732 48.9998 118.806 48.9998Z" fill="#010101"/>
<path d="M123.305 48.0105C123.368 48.0105 123.437 48.0093 123.51 48.0067C123.584 48.0042 123.631 48.0024 123.652 48.0024C123.705 48.0024 123.731 48.045 123.731 48.1292C123.731 48.1665 123.726 48.2074 123.715 48.252C123.705 48.2967 123.693 48.34 123.68 48.3821C123.667 48.4248 123.651 48.4626 123.633 48.4971C123.614 48.5318 123.597 48.5562 123.581 48.5719H123.336C123.284 48.5719 123.235 48.5739 123.19 48.5764C123.146 48.579 123.102 48.5803 123.06 48.5803C123.076 48.6858 123.117 48.7662 123.183 48.8215C123.249 48.877 123.329 48.9179 123.424 48.9443C123.518 48.9706 123.619 48.9864 123.727 48.9915C123.835 48.997 123.939 48.9996 124.039 48.9996C124.086 48.9996 124.13 49.0153 124.169 49.0467C124.209 49.0782 124.229 49.1447 124.229 49.2449C124.229 49.3448 124.21 49.4133 124.173 49.4503C124.136 49.4874 124.092 49.5056 124.039 49.5056C123.881 49.5056 123.731 49.4937 123.589 49.4699C123.447 49.4465 123.322 49.4001 123.214 49.3316C123.106 49.2629 123.018 49.1713 122.95 49.0549C122.881 48.9384 122.845 48.7883 122.839 48.6041C122.692 48.6249 122.563 48.6619 122.452 48.7147C122.258 48.8048 122.073 48.8902 121.9 48.9719C121.726 49.0536 121.551 49.1259 121.375 49.1893C121.199 49.2522 121.017 49.304 120.83 49.3435C120.644 49.3831 120.439 49.4108 120.218 49.4265C120.145 49.4321 120.1 49.4133 120.084 49.3712C120.068 49.3291 120.061 49.2763 120.061 49.2134C120.061 49.1761 120.072 49.1246 120.096 49.0587C120.12 48.9927 120.16 48.9575 120.218 48.9519C120.534 48.9311 120.868 48.8687 121.221 48.7662C121.573 48.6632 121.916 48.5298 122.247 48.3664C122.179 48.3456 122.097 48.3167 122.002 48.2797C121.908 48.2426 121.808 48.2041 121.703 48.1645C121.597 48.1257 121.493 48.0909 121.391 48.062C121.288 48.0331 121.197 48.0186 121.118 48.0186C121.024 48.0186 120.95 48.045 120.897 48.0973C120.844 48.15 120.792 48.2163 120.739 48.2954C120.729 48.306 120.721 48.3167 120.716 48.3268C120.711 48.3375 120.7 48.3431 120.684 48.3431C120.669 48.3431 120.66 48.3299 120.66 48.303V48.2716C120.66 48.2665 120.663 48.2614 120.669 48.2558C120.695 48.145 120.722 48.045 120.751 47.9552C120.78 47.8659 120.815 47.7893 120.858 47.7257C120.9 47.6622 120.951 47.6138 121.012 47.5793C121.072 47.5453 121.15 47.5283 121.244 47.5283C121.339 47.5283 121.446 47.5478 121.564 47.5874C121.682 47.627 121.808 47.6729 121.939 47.7257C122.071 47.7784 122.205 47.8302 122.342 47.8796C122.479 47.9301 122.613 47.9633 122.745 47.9791C122.834 47.9897 122.931 47.9973 123.036 48.0024C123.142 48.008 123.231 48.0105 123.305 48.0105Z" fill="#010101"/>
<path d="M126.09 48.6903C126.075 48.6162 126.051 48.5343 126.019 48.4463C125.988 48.3582 125.95 48.2773 125.905 48.2025C125.86 48.1282 125.81 48.0665 125.755 48.0188C125.7 47.9709 125.643 47.9465 125.585 47.9465C125.511 47.9465 125.431 47.9798 125.344 48.047C125.258 48.1137 125.185 48.1999 125.127 48.3067C125.275 48.3973 125.438 48.481 125.617 48.5581C125.795 48.6355 125.954 48.6796 126.09 48.6903ZM124.006 49.505C123.985 49.505 123.96 49.5038 123.931 49.5012C123.903 49.499 123.875 49.4881 123.849 49.4693C123.822 49.451 123.8 49.4246 123.782 49.3906C123.763 49.3561 123.754 49.3077 123.754 49.2443C123.754 49.1492 123.786 49.0845 123.852 49.0505C123.918 49.016 123.97 48.999 124.006 48.999C124.18 48.999 124.327 48.9488 124.448 48.8488C124.57 48.7481 124.659 48.6375 124.717 48.516C124.701 48.4211 124.693 48.3476 124.693 48.2948C124.693 48.1791 124.722 48.1205 124.78 48.1205C124.801 48.1205 124.82 48.1277 124.839 48.1408C124.857 48.154 124.878 48.1685 124.898 48.1842L124.985 48.0414C125.022 47.9836 125.065 47.9202 125.115 47.8517C125.165 47.7829 125.22 47.7213 125.277 47.666C125.335 47.6107 125.397 47.5643 125.463 47.5277C125.528 47.4907 125.599 47.4717 125.672 47.4717C125.777 47.4717 125.871 47.5183 125.952 47.6107C126.034 47.7033 126.102 47.8177 126.157 47.9547C126.213 48.0916 126.255 48.2382 126.284 48.3935C126.312 48.5495 126.328 48.6877 126.328 48.809C126.328 48.9041 126.3 48.9827 126.244 49.0462C126.189 49.1096 126.132 49.141 126.075 49.141C126.011 49.141 125.934 49.1311 125.842 49.1096C125.75 49.0888 125.65 49.0594 125.542 49.0228C125.433 48.9858 125.327 48.9437 125.222 48.896C125.117 48.8488 125.022 48.7983 124.938 48.7456C124.896 48.8404 124.844 48.933 124.784 49.0228C124.723 49.1121 124.654 49.1925 124.575 49.2638C124.495 49.3353 124.409 49.3932 124.314 49.4378C124.219 49.4825 124.117 49.505 124.006 49.505Z" fill="#010101"/>
<path d="M96.274 44.4184C96.2697 44.4286 96.2601 44.4303 96.2464 44.4248C95.9715 44.3385 95.7338 44.2279 95.5323 44.0914C95.3303 43.9557 95.1478 43.7759 94.9833 43.5527C94.8185 43.3287 94.6595 43.0428 94.5046 42.6933L94.2907 42.6801C94.2763 42.6768 94.2699 42.6717 94.2712 42.6649C94.2725 42.658 94.2806 42.6529 94.295 42.6499L94.4193 42.6453C94.6484 42.6227 94.8147 42.5423 94.9187 42.4046C95.0235 42.2676 95.0757 42.0784 95.0757 41.8374C95.0757 41.5997 95.0197 41.4262 94.9081 41.3174C94.7965 41.2088 94.6319 41.1515 94.415 41.1459L94.2687 41.137C94.2117 41.137 94.1732 41.1497 94.1532 41.1736C94.1332 41.1979 94.1231 41.2413 94.1231 41.305V43.6169C94.1231 43.9375 94.2261 44.1041 94.4325 44.1153C94.4519 44.1153 94.4613 44.1211 94.46 44.1323C94.4588 44.1442 94.4494 44.1493 94.4325 44.1493C94.312 44.1412 94.2249 44.1369 94.1702 44.1369H93.4285C93.3797 44.1369 93.2911 44.1412 93.1625 44.1493C93.148 44.1493 93.1407 44.1442 93.1387 44.1323C93.1374 44.1211 93.1455 44.1153 93.1625 44.1153C93.3716 44.1041 93.4756 43.9375 93.4756 43.6169V41.6482C93.4756 41.3245 93.3716 41.1604 93.1625 41.154C93.1425 41.154 93.1336 41.1484 93.1349 41.137C93.1361 41.1256 93.1455 41.12 93.1625 41.12C93.2485 41.1256 93.3356 41.1281 93.4242 41.1281C93.5328 41.1281 93.628 41.1269 93.7098 41.1238C93.7908 41.1213 93.8591 41.1188 93.913 41.1157C93.9819 41.1124 94.0674 41.1099 94.1702 41.1068C94.2732 41.1043 94.3935 41.1025 94.5309 41.1025C94.9683 41.1025 95.2896 41.1665 95.4954 41.2935C95.7017 41.4211 95.8047 41.6213 95.8047 41.8935C95.8047 42.1167 95.71 42.2978 95.5217 42.4348C95.3329 42.5725 95.0612 42.6555 94.7066 42.6844C94.7405 42.6869 94.7906 42.6887 94.8567 42.6887C94.957 42.6887 95.0681 42.6813 95.1911 42.6669H95.2C95.2225 42.6669 95.24 42.6831 95.2513 42.7146C95.3511 43.1044 95.4903 43.4553 95.6673 43.767C95.8442 44.0795 96.0419 44.287 96.2588 44.39C96.2733 44.3989 96.2783 44.4083 96.274 44.4184Z" fill="#010101"/>
<path d="M97.7279 43.9889C97.8064 43.9103 97.8458 43.7959 97.8458 43.647C97.8458 43.4727 97.7995 43.2695 97.7066 43.0389C97.6137 42.8089 97.4996 42.6095 97.3659 42.4415C97.231 42.2744 97.1067 42.1889 96.9925 42.1856C96.8551 42.1831 96.7472 42.2209 96.6688 42.3C96.5898 42.3786 96.5508 42.4938 96.5508 42.646C96.5508 42.8175 96.5974 43.0194 96.69 43.2495C96.7829 43.4803 96.8958 43.6794 97.029 43.8468C97.1619 44.0148 97.2857 44.1002 97.3998 44.1028C97.5396 44.1058 97.6494 44.0675 97.7279 43.9889ZM96.5741 44.0812C96.4096 43.9952 96.281 43.8745 96.188 43.718C96.0954 43.562 96.0488 43.3834 96.0488 43.1827C96.0488 42.9765 96.1022 42.7898 96.2096 42.6219C96.3166 42.4547 96.463 42.3233 96.6475 42.229C96.8313 42.1341 97.0353 42.0869 97.2586 42.0869C97.4699 42.0869 97.6588 42.1303 97.8246 42.2158C97.9901 42.302 98.1208 42.422 98.2147 42.5773C98.3088 42.7315 98.3559 42.908 98.3559 43.1056C98.3559 43.3119 98.302 43.4998 98.1929 43.6688C98.0843 43.838 97.9375 43.9701 97.7517 44.0663C97.5654 44.1619 97.3583 44.2101 97.13 44.2101C96.9234 44.2101 96.7384 44.1667 96.5741 44.0812Z" fill="#010101"/>
<path d="M99.998 43.4624L99.9208 43.1273C99.8036 43.0959 99.6862 43.0802 99.569 43.0802C99.4265 43.0802 99.3247 43.1048 99.2645 43.1532C99.205 43.2022 99.1748 43.292 99.1748 43.4241C99.1748 43.5611 99.2131 43.678 99.2903 43.7742C99.3675 43.8698 99.4748 43.9183 99.6123 43.9183C99.8325 43.9183 99.9565 43.8051 99.9849 43.5781C99.9993 43.5474 100.004 43.5083 99.998 43.4624ZM101.047 43.314C101.06 43.3128 101.066 43.3204 101.066 43.3379C101.066 43.5185 101.038 43.6737 100.982 43.8044C100.927 43.9345 100.853 44.0339 100.762 44.1032C100.67 44.1717 100.574 44.2062 100.474 44.2062C100.377 44.2062 100.292 44.1653 100.221 44.0837C100.149 44.002 100.095 43.8805 100.058 43.7202L100.036 43.6347C99.9824 43.8176 99.8915 43.9591 99.7647 44.0578C99.6373 44.1565 99.4981 44.2062 99.3462 44.2062C99.1862 44.2062 99.0518 44.1729 98.9432 44.1075C98.8341 44.0415 98.7526 43.9548 98.6987 43.8472C98.644 43.7397 98.6172 43.6258 98.6172 43.5053C98.6172 43.3536 98.6881 43.2341 98.8298 43.1469C98.9711 43.0594 99.1579 43.0155 99.3895 43.0155C99.592 43.0155 99.7652 43.0299 99.9084 43.0581L99.8092 42.6375C99.7778 42.4998 99.7252 42.3973 99.6505 42.3301C99.5763 42.2629 99.4723 42.2289 99.3374 42.2289C99.166 42.2289 99.0212 42.276 98.902 42.3709C98.7832 42.4653 98.7157 42.6162 98.6987 42.8217C98.6929 42.845 98.686 42.8564 98.6772 42.8564C98.6653 42.8564 98.6597 42.845 98.6597 42.8217C98.6772 42.6533 98.7344 42.5125 98.8316 42.4011C98.9288 42.2892 99.0468 42.2081 99.1855 42.1578C99.3242 42.1081 99.466 42.083 99.6123 42.083C99.8695 42.083 100.061 42.1307 100.189 42.2268C100.316 42.3232 100.405 42.4828 100.457 42.706L100.663 43.6347C100.68 43.7032 100.701 43.7554 100.725 43.7912C100.749 43.8272 100.783 43.8452 100.826 43.8452C100.883 43.8452 100.932 43.7963 100.972 43.6988C101.012 43.6014 101.03 43.4812 101.027 43.3379C101.027 43.3234 101.034 43.3158 101.047 43.314Z" fill="#010101"/>
<path d="M101.293 43.2996C101.295 43.2882 101.302 43.2826 101.31 43.2826C101.319 43.2826 101.324 43.2894 101.327 43.3039C101.348 43.556 101.419 43.7605 101.542 43.9165C101.664 44.0722 101.822 44.1504 102.013 44.1504C102.116 44.1504 102.196 44.1334 102.252 44.0986C102.308 44.0649 102.335 44.0058 102.335 43.9226C102.332 43.8107 102.282 43.7077 102.183 43.6134C102.084 43.519 101.94 43.4127 101.752 43.2953C101.571 43.1776 101.436 43.0708 101.344 42.9751C101.253 42.879 101.207 42.7697 101.207 42.6464C101.207 42.5432 101.247 42.4488 101.325 42.3628C101.404 42.2765 101.511 42.2088 101.647 42.1583C101.782 42.1081 101.934 42.083 102.099 42.083C102.211 42.083 102.33 42.0949 102.455 42.1175C102.581 42.1408 102.685 42.1741 102.766 42.2187C102.848 42.2634 102.881 42.3156 102.866 42.3752L102.721 42.9254C102.718 42.9343 102.714 42.9386 102.706 42.9386C102.699 42.9386 102.695 42.933 102.695 42.9211C102.673 42.669 102.599 42.4777 102.474 42.3476C102.35 42.2169 102.191 42.1523 101.996 42.1523C101.893 42.1523 101.822 42.1677 101.782 42.1992C101.742 42.2306 101.722 42.2753 101.722 42.3326C101.722 42.41 101.765 42.4853 101.853 42.5584C101.94 42.6312 102.09 42.7337 102.305 42.8651C102.488 42.9746 102.634 43.0865 102.744 43.2009C102.855 43.3153 102.91 43.4497 102.91 43.6045C102.91 43.7222 102.869 43.8272 102.787 43.9208C102.706 44.0139 102.592 44.0854 102.447 44.1351C102.301 44.1854 102.135 44.2107 101.949 44.2107C101.814 44.2107 101.683 44.195 101.555 44.1635C101.426 44.1321 101.324 44.0905 101.248 44.039C101.172 43.9875 101.142 43.9297 101.156 43.8668L101.293 43.2996Z" fill="#010101"/>
<path d="M103.552 44.0578C103.468 43.9591 103.425 43.8376 103.425 43.6951V42.3149C103.425 42.2723 103.421 42.2408 103.411 42.2205C103.401 42.2005 103.376 42.1903 103.336 42.1903H103.185C103.171 42.1903 103.165 42.186 103.166 42.1779C103.167 42.169 103.174 42.1634 103.185 42.1601C103.362 42.1289 103.53 42.0495 103.687 41.9219C103.844 41.7944 103.953 41.6391 104.013 41.4555C104.019 41.4359 104.026 41.4258 104.034 41.4258C104.043 41.4258 104.047 41.4359 104.047 41.4555L104.026 42.0746C104.026 42.1086 104.034 42.1312 104.05 42.1409C104.065 42.1515 104.095 42.1566 104.137 42.1566H104.523C104.526 42.1566 104.528 42.1589 104.528 42.1647C104.528 42.1711 104.525 42.1759 104.519 42.1822C104.514 42.188 104.506 42.1903 104.497 42.1903H104.146C104.1 42.1903 104.069 42.1987 104.051 42.2144C104.034 42.2302 104.026 42.2578 104.026 42.2979V43.536C104.026 43.6448 104.047 43.7283 104.088 43.7874C104.13 43.846 104.184 43.8754 104.253 43.8754C104.307 43.8754 104.365 43.8571 104.425 43.8214C104.485 43.7856 104.542 43.7334 104.597 43.6649C104.61 43.6504 104.62 43.6466 104.627 43.6542C104.632 43.6611 104.629 43.6717 104.618 43.6862C104.486 43.8665 104.357 43.9987 104.231 44.0816C104.106 44.1646 103.987 44.2062 103.876 44.2062C103.745 44.2062 103.637 44.1565 103.552 44.0578Z" fill="#010101"/>
<path d="M105.33 42.3024C105.261 42.3887 105.227 42.5142 105.227 42.6809C105.227 42.8156 105.252 42.9556 105.304 43.1015C105.538 43.0959 105.709 43.0903 105.814 43.0845C105.968 43.0789 106.064 43.0758 106.101 43.0758C106.13 43.0444 106.144 42.9972 106.144 42.9343C106.144 42.8425 106.118 42.7357 106.065 42.6142C106.012 42.4924 105.946 42.3887 105.865 42.3024C105.786 42.2169 105.707 42.1736 105.63 42.1736C105.498 42.1736 105.398 42.2169 105.33 42.3024ZM106.706 43.7511C106.715 43.7567 106.715 43.7656 106.706 43.7767C106.598 43.914 106.46 44.0202 106.292 44.0943C106.125 44.1691 105.956 44.2062 105.784 44.2062C105.598 44.2062 105.426 44.1641 105.268 44.0799C105.109 43.9951 104.982 43.8756 104.888 43.7209C104.793 43.5662 104.746 43.3871 104.746 43.1834C104.746 42.9858 104.797 42.8029 104.898 42.6357C105 42.4678 105.138 42.3339 105.313 42.2339C105.487 42.1332 105.678 42.083 105.887 42.083C106.121 42.083 106.316 42.1452 106.47 42.2679C106.625 42.3917 106.702 42.5622 106.702 42.7796C106.702 42.877 106.685 42.9815 106.65 43.0933C106.293 43.1015 105.848 43.1159 105.316 43.1362C105.405 43.3569 105.54 43.5423 105.722 43.6925C105.904 43.8434 106.087 43.9183 106.273 43.9183C106.453 43.9183 106.592 43.8612 106.689 43.7465C106.692 43.7435 106.697 43.7448 106.706 43.7511Z" fill="#010101"/>
<path d="M108.732 42.1643C108.823 42.2191 108.868 42.2876 108.868 42.3705C108.868 42.3794 108.865 42.3976 108.859 42.4266L108.61 43.2903C108.608 43.3073 108.601 43.3136 108.591 43.3093C108.581 43.3055 108.577 43.2961 108.58 43.2817C108.591 43.2155 108.597 43.1482 108.597 43.0798C108.597 42.8994 108.554 42.7616 108.469 42.6673C108.383 42.5724 108.283 42.5252 108.168 42.5252C108.048 42.5252 107.966 42.5968 107.922 42.7401C107.878 42.8837 107.855 43.0742 107.855 43.3116V43.7116C107.855 43.8605 107.873 43.9638 107.909 44.0208C107.945 44.0782 108.013 44.1084 108.113 44.1109C108.127 44.1109 108.134 44.1165 108.134 44.1284C108.134 44.1398 108.127 44.1454 108.113 44.1454C107.987 44.1398 107.824 44.1365 107.624 44.1365C107.364 44.1365 107.156 44.1398 107.002 44.1454C106.985 44.1454 106.976 44.1398 106.976 44.1284C106.976 44.1165 106.985 44.1109 107.002 44.1109C107.071 44.1109 107.121 44.1033 107.154 44.0875C107.187 44.0718 107.212 44.0353 107.229 43.9775C107.247 43.9204 107.255 43.8303 107.255 43.7073V42.7873C107.255 42.6584 107.242 42.5661 107.215 42.51C107.187 42.4542 107.132 42.4266 107.049 42.4266C107.023 42.4266 107.003 42.4278 106.989 42.4309C106.977 42.4334 106.971 42.4301 106.967 42.4202C106.965 42.4101 106.969 42.4032 106.981 42.4007C107.132 42.3662 107.289 42.319 107.45 42.2586C107.612 42.1988 107.745 42.1328 107.851 42.0613C107.865 42.0524 107.875 42.0479 107.881 42.0479C107.895 42.0479 107.902 42.058 107.902 42.078C107.883 42.2673 107.87 42.4113 107.864 42.51C107.858 42.6087 107.855 42.7226 107.855 42.8522C107.887 42.6396 107.947 42.4585 108.035 42.3084C108.124 42.1579 108.257 42.0826 108.434 42.0826C108.543 42.0826 108.643 42.1095 108.732 42.1643Z" fill="#010101"/>
<path d="M109.252 43.2996C109.255 43.2882 109.26 43.2826 109.269 43.2826C109.278 43.2826 109.284 43.2894 109.286 43.3039C109.307 43.556 109.378 43.7605 109.501 43.9165C109.624 44.0722 109.781 44.1504 109.972 44.1504C110.075 44.1504 110.154 44.1334 110.21 44.0986C110.267 44.0649 110.294 44.0058 110.294 43.9226C110.291 43.8107 110.24 43.7077 110.142 43.6134C110.044 43.519 109.9 43.4127 109.711 43.2953C109.531 43.1776 109.395 43.0708 109.304 42.9751C109.212 42.879 109.166 42.7697 109.166 42.6464C109.166 42.5432 109.206 42.4488 109.284 42.3628C109.363 42.2765 109.47 42.2088 109.606 42.1583C109.742 42.1081 109.892 42.083 110.058 42.083C110.17 42.083 110.289 42.0949 110.414 42.1175C110.54 42.1408 110.644 42.1741 110.725 42.2187C110.807 42.2634 110.84 42.3156 110.826 42.3752L110.68 42.9254C110.677 42.9343 110.673 42.9386 110.665 42.9386C110.658 42.9386 110.655 42.933 110.655 42.9211C110.632 42.669 110.558 42.4777 110.434 42.3476C110.309 42.2169 110.15 42.1523 109.956 42.1523C109.853 42.1523 109.781 42.1677 109.741 42.1992C109.701 42.2306 109.681 42.2753 109.681 42.3326C109.681 42.41 109.725 42.4853 109.812 42.5584C109.899 42.6312 110.05 42.7337 110.264 42.8651C110.448 42.9746 110.594 43.0865 110.703 43.2009C110.814 43.3153 110.869 43.4497 110.869 43.6045C110.869 43.7222 110.828 43.8272 110.747 43.9208C110.665 44.0139 110.552 44.0854 110.406 44.1351C110.26 44.1854 110.094 44.2107 109.909 44.2107C109.774 44.2107 109.643 44.195 109.514 44.1635C109.385 44.1321 109.283 44.0905 109.207 44.039C109.131 43.9875 109.1 43.9297 109.115 43.8668L109.252 43.2996Z" fill="#010101"/>
<path d="M115.619 42.9871C115.551 42.8255 115.467 42.6933 115.366 42.5916C115.264 42.4896 115.163 42.4389 115.063 42.4389C114.8 42.4389 114.621 42.4364 114.528 42.4305C114.487 42.4305 114.467 42.4194 114.467 42.396C114.467 42.3871 114.472 42.3747 114.48 42.3577C114.489 42.34 114.514 42.2999 114.557 42.237C114.617 42.137 114.659 42.0546 114.684 41.9899C114.708 41.9257 114.722 41.8572 114.724 41.7862C114.724 41.6685 114.695 41.5579 114.637 41.4549C114.578 41.3517 114.503 41.2692 114.411 41.2076C114.32 41.1462 114.226 41.1153 114.128 41.1153C114.022 41.1153 113.944 41.1335 113.892 41.1693C113.841 41.2053 113.814 41.2776 113.811 41.3862C113.811 41.475 113.835 41.5693 113.884 41.6698C113.933 41.7697 114.021 41.9275 114.15 42.1426C114.287 42.3633 114.41 42.5721 114.519 42.7702L114.528 42.7872L114.948 43.5436C115.013 43.6666 115.079 43.7579 115.145 43.8163C115.211 43.8754 115.293 43.9043 115.393 43.9043C115.505 43.9043 115.587 43.8716 115.64 43.8056C115.693 43.7397 115.72 43.6321 115.72 43.4837C115.72 43.3145 115.686 43.1486 115.619 42.9871ZM114.056 43.7932C114.141 43.7498 114.23 43.6755 114.321 43.5692L114.214 43.3719C114.177 43.3059 114.133 43.2278 114.083 43.1372C114.033 43.0474 113.976 42.9462 113.914 42.8343L113.837 42.7055C113.651 42.4194 113.429 42.276 113.172 42.276C113.032 42.276 112.933 42.325 112.874 42.4244C112.815 42.5231 112.784 42.638 112.782 42.7702C112.782 42.9505 112.82 43.1248 112.896 43.292C112.971 43.4599 113.082 43.5956 113.227 43.7006C113.373 43.8051 113.545 43.8571 113.743 43.8571C113.866 43.8571 113.97 43.8358 114.056 43.7932ZM116.034 41.8999C116.042 41.9044 116.043 41.9131 116.037 41.9275C115.994 42.0082 115.926 42.0881 115.833 42.1685C115.74 42.2484 115.631 42.3174 115.505 42.3747C115.597 42.4777 115.672 42.601 115.73 42.7443C115.789 42.8876 115.818 43.0492 115.818 43.2298C115.818 43.4046 115.787 43.5674 115.724 43.7176C115.661 43.868 115.573 43.9875 115.462 44.0765C115.351 44.1653 115.222 44.2092 115.076 44.2092C114.925 44.2092 114.796 44.1641 114.69 44.0722C114.584 43.9804 114.484 43.8528 114.39 43.6895L114.343 43.6083C114.231 43.7968 114.097 43.9446 113.939 44.0509C113.783 44.1564 113.574 44.2092 113.313 44.2092C113.113 44.2092 112.937 44.1679 112.784 44.0849C112.631 44.002 112.512 43.8855 112.425 43.7346C112.34 43.5844 112.297 43.4122 112.297 43.2166C112.297 43.0649 112.338 42.9105 112.422 42.7532C112.504 42.5954 112.629 42.4632 112.797 42.3577C112.964 42.2514 113.165 42.1987 113.399 42.1987C113.46 42.1987 113.504 42.1999 113.532 42.2025C113.452 42.0652 113.393 41.9491 113.354 41.8547C113.316 41.7603 113.297 41.6731 113.297 41.5924C113.297 41.492 113.33 41.4014 113.399 41.3197C113.468 41.2378 113.57 41.1731 113.706 41.1259C113.842 41.0787 114.005 41.0557 114.197 41.0557C114.368 41.0557 114.518 41.0795 114.645 41.1285C114.772 41.1769 114.87 41.2391 114.939 41.3152C115.007 41.3913 115.042 41.4674 115.042 41.5452C115.042 41.5881 115.027 41.631 114.999 41.6743L114.669 42.1472C114.918 42.1753 115.137 42.1898 115.329 42.1898C115.501 42.1898 115.644 42.1639 115.76 42.1124C115.876 42.0609 115.96 41.995 116.011 41.9143C116.019 41.9006 116.028 41.8955 116.034 41.8999Z" fill="#010101"/>
<path d="M119.581 42.8524C119.575 42.8669 119.567 42.872 119.557 42.8674C119.547 42.8631 119.544 42.8537 119.547 42.8392C119.598 42.7048 119.623 42.5587 119.623 42.4009C119.623 42.1665 119.565 41.9425 119.448 41.7307C119.359 41.5615 119.246 41.4289 119.107 41.3335C118.968 41.2371 118.822 41.1894 118.667 41.1894C118.158 41.1894 117.904 41.4459 117.904 41.9583C117.904 42.2934 117.971 42.6054 118.106 42.8933C118.24 43.1812 118.415 43.4095 118.631 43.5787C118.847 43.7479 119.071 43.8321 119.302 43.8321C119.431 43.8321 119.569 43.8092 119.718 43.7636C119.867 43.7177 119.997 43.639 120.109 43.5272L120.134 43.5145C120.149 43.5145 120.147 43.5259 120.13 43.5485C119.767 43.9899 119.328 44.2105 118.813 44.2105C118.544 44.2105 118.296 44.1476 118.067 44.0213C117.838 43.8955 117.656 43.7169 117.52 43.4861C117.384 43.2555 117.316 42.9902 117.316 42.6891C117.316 42.3885 117.392 42.113 117.541 41.8642C117.692 41.6146 117.894 41.4182 118.148 41.2749C118.403 41.1316 118.679 41.0605 118.976 41.0605C119.165 41.0605 119.344 41.0864 119.514 41.1379C119.684 41.1894 119.821 41.2549 119.924 41.3353C120.027 41.4157 120.078 41.4943 120.078 41.5717C120.078 41.5806 120.076 41.5963 120.07 41.6189L119.581 42.8524Z" fill="#010101"/>
<path d="M121.742 43.4624L121.665 43.1273C121.548 43.0959 121.43 43.0802 121.313 43.0802C121.17 43.0802 121.069 43.1048 121.009 43.1532C120.949 43.2022 120.919 43.292 120.919 43.4241C120.919 43.5611 120.957 43.678 121.034 43.7742C121.112 43.8698 121.219 43.9183 121.356 43.9183C121.576 43.9183 121.701 43.8051 121.729 43.5781C121.743 43.5474 121.748 43.5083 121.742 43.4624ZM122.791 43.314C122.804 43.3128 122.81 43.3204 122.81 43.3379C122.81 43.5185 122.782 43.6737 122.727 43.8044C122.671 43.9345 122.597 44.0339 122.505 44.1032C122.414 44.1717 122.318 44.2062 122.218 44.2062C122.121 44.2062 122.036 44.1653 121.965 44.0837C121.893 44.002 121.839 43.8805 121.802 43.7202L121.78 43.6347C121.726 43.8176 121.636 43.9591 121.508 44.0578C121.381 44.1565 121.241 44.2062 121.09 44.2062C120.93 44.2062 120.796 44.1729 120.687 44.1075C120.578 44.0415 120.497 43.9548 120.443 43.8472C120.388 43.7397 120.361 43.6258 120.361 43.5053C120.361 43.3536 120.432 43.2341 120.573 43.1469C120.715 43.0594 120.902 43.0155 121.133 43.0155C121.336 43.0155 121.509 43.0299 121.652 43.0581L121.553 42.6375C121.522 42.4998 121.469 42.3973 121.395 42.3301C121.32 42.2629 121.216 42.2289 121.081 42.2289C120.91 42.2289 120.765 42.276 120.646 42.3709C120.527 42.4653 120.46 42.6162 120.443 42.8217C120.437 42.845 120.43 42.8564 120.421 42.8564C120.409 42.8564 120.404 42.845 120.404 42.8217C120.421 42.6533 120.479 42.5125 120.575 42.4011C120.673 42.2892 120.79 42.2081 120.93 42.1578C121.068 42.1081 121.21 42.083 121.356 42.083C121.614 42.083 121.805 42.1307 121.933 42.2268C122.06 42.3232 122.149 42.4828 122.201 42.706L122.407 43.6347C122.424 43.7032 122.445 43.7554 122.469 43.7912C122.493 43.8272 122.527 43.8452 122.57 43.8452C122.627 43.8452 122.676 43.7963 122.716 43.6988C122.755 43.6014 122.774 43.4812 122.771 43.3379C122.771 43.3234 122.778 43.3158 122.791 43.314Z" fill="#010101"/>
<path d="M122.929 42.1905C122.915 42.1905 122.908 42.1862 122.908 42.1773C122.908 42.1692 122.915 42.1633 122.929 42.1603C123.044 42.1458 123.129 42.1131 123.185 42.0616C123.241 42.0101 123.268 41.917 123.268 41.7818C123.268 41.6245 123.301 41.4881 123.367 41.3737C123.433 41.2593 123.519 41.1725 123.627 41.1142C123.734 41.0551 123.846 41.0254 123.963 41.0254C124.046 41.0254 124.126 41.0419 124.203 41.0731C124.28 41.1045 124.349 41.1504 124.409 41.2103C124.423 41.2304 124.43 41.2448 124.43 41.2537C124.43 41.2682 124.408 41.295 124.364 41.3354C124.32 41.375 124.272 41.4171 124.22 41.4599C124.135 41.5315 124.088 41.5718 124.079 41.5799C124.065 41.5944 124.051 41.602 124.04 41.602C124.029 41.602 124.017 41.5931 124.006 41.5761C123.937 41.4612 123.865 41.3737 123.789 41.3133C123.713 41.2537 123.644 41.2235 123.581 41.2235C123.535 41.2235 123.5 41.238 123.474 41.2661C123.451 41.2895 123.44 41.3311 123.44 41.3914C123.44 41.5 123.475 41.6291 123.545 41.778C123.615 41.9269 123.707 42.0484 123.822 42.1433C123.85 42.1514 123.888 42.156 123.933 42.156H124.353C124.356 42.156 124.357 42.1603 124.357 42.1692C124.357 42.1836 124.349 42.1905 124.332 42.1905H123.967C123.913 42.1905 123.876 42.1981 123.856 42.2143C123.835 42.23 123.826 42.2645 123.826 42.3193V43.626C123.826 43.8033 123.855 43.9276 123.914 43.9976C123.972 44.0678 124.066 44.1031 124.194 44.1031C124.214 44.1031 124.225 44.1087 124.225 44.1201C124.225 44.1345 124.214 44.1414 124.194 44.1414C124.08 44.1358 123.962 44.1333 123.838 44.1333L123.221 44.1371C123.124 44.1371 123.032 44.1401 122.946 44.146C122.932 44.146 122.925 44.1401 122.925 44.129C122.925 44.1171 122.932 44.1099 122.946 44.1074C123.044 44.1074 123.115 44.0716 123.159 43.9993C123.203 43.9283 123.225 43.805 123.225 43.6303V42.3193C123.225 42.2709 123.218 42.2369 123.202 42.2181C123.186 42.1999 123.159 42.1905 123.118 42.1905H122.929Z" fill="#010101"/>
<path d="M124.945 42.3024C124.876 42.3887 124.842 42.5142 124.842 42.6809C124.842 42.8156 124.868 42.9556 124.919 43.1015C125.153 43.0959 125.324 43.0903 125.429 43.0845C125.583 43.0789 125.679 43.0758 125.717 43.0758C125.745 43.0444 125.759 42.9972 125.759 42.9343C125.759 42.8425 125.733 42.7357 125.68 42.6142C125.628 42.4924 125.561 42.3887 125.481 42.3024C125.401 42.2169 125.322 42.1736 125.245 42.1736C125.113 42.1736 125.013 42.2169 124.945 42.3024ZM126.321 43.7511C126.33 43.7567 126.33 43.7656 126.321 43.7767C126.212 43.914 126.075 44.0202 125.907 44.0943C125.74 44.1691 125.571 44.2062 125.399 44.2062C125.213 44.2062 125.041 44.1641 124.883 44.0799C124.724 43.9951 124.597 43.8756 124.503 43.7209C124.408 43.5662 124.361 43.3871 124.361 43.1834C124.361 42.9858 124.412 42.8029 124.514 42.6357C124.615 42.4678 124.753 42.3339 124.928 42.2339C125.102 42.1332 125.294 42.083 125.502 42.083C125.737 42.083 125.931 42.1452 126.085 42.2679C126.24 42.3917 126.317 42.5622 126.317 42.7796C126.317 42.877 126.3 42.9815 126.265 43.0933C125.908 43.1015 125.464 43.1159 124.932 43.1362C125.02 43.3569 125.156 43.5423 125.337 43.6925C125.519 43.8434 125.702 43.9183 125.889 43.9183C126.068 43.9183 126.207 43.8612 126.304 43.7465C126.307 43.7435 126.313 43.7448 126.321 43.7511Z" fill="#010101"/>
<path d="M82.287 10.9962C82.3718 10.7887 82.447 10.5769 82.543 10.375C83.0801 9.24899 83.9063 8.41774 85.0584 7.92664C85.7102 7.64888 86.3949 7.56137 87.0989 7.62174C87.5568 7.6608 88.0054 7.74121 88.4314 7.9274C89.2202 8.27264 89.7226 8.88879 89.9945 9.68098C90.2135 10.3184 90.3677 10.9792 90.5352 11.6337C90.7932 12.6448 90.7755 12.5831 91.0258 13.596C91.2243 14.3984 91.3792 15.046 91.5794 15.847C91.664 16.1852 91.7657 16.5185 91.967 16.8089C92.1684 17.1001 92.4439 17.2435 92.7162 17.1435C92.878 17.0844 93.0337 16.9573 93.1466 16.8229C93.419 16.4989 93.5688 16.104 93.6404 15.6928C93.7202 15.2327 93.7521 14.7636 93.8055 14.2984C93.8166 14.2041 93.7835 14.0557 93.9227 14.0625C94.047 14.0689 94.0138 14.2104 94.0118 14.301C93.9961 15.1183 93.8946 15.9219 93.601 16.6902C93.2934 17.4943 92.8448 18.1977 92.0836 18.6416C91.4118 19.0341 90.7066 19.1497 89.9963 18.7373C89.532 18.4669 89.2559 18.028 89.0318 17.5534C88.7734 17.0083 88.6448 16.4223 88.503 15.8399C88.3172 15.08 88.1724 14.4745 87.9866 13.7142C87.7859 12.888 87.4935 11.654 87.2865 10.8291C87.1027 10.0939 87.2852 10.8384 87.0726 10.1117C86.7726 9.08918 86.1319 8.71021 85.0239 8.78174C84.2779 8.83019 83.7102 9.22058 83.2659 9.80401C82.8077 10.4047 82.5612 11.0969 82.4101 11.828C82.2858 12.433 82.2544 13.0453 82.2569 13.6607C82.2632 15.0792 82.2564 16.4977 82.2713 17.9162C82.2739 18.1927 82.3265 18.475 82.3982 18.7436C82.5667 19.3747 83.0062 19.6231 83.6097 19.6842C83.6768 19.6911 83.7471 19.686 83.8104 19.705C83.8474 19.7157 83.8732 19.7641 83.9038 19.7956C83.8701 19.8232 83.84 19.8608 83.8015 19.8752C83.7628 19.8892 83.7157 19.879 83.6724 19.879C81.7413 19.879 79.8093 19.879 77.8782 19.8772C77.7865 19.8765 77.6351 19.9287 77.6291 19.7847C77.6232 19.6383 77.7764 19.688 77.868 19.6779C78.0599 19.6558 78.2558 19.6578 78.4434 19.6182C78.9051 19.5219 79.1173 19.1804 79.1813 18.753C79.2421 18.3436 79.2815 17.9263 79.281 17.5126C79.2709 13.4459 79.2514 8.18335 79.2322 4.11712C79.2302 3.66636 79.2043 3.21611 79.0489 2.78666C78.8988 2.37115 78.6442 2.22022 78.21 2.27679C78.1523 2.2844 78.09 2.30063 78.0381 2.28617C77.9852 2.2712 77.942 2.22225 77.8944 2.18826C77.9333 2.16061 77.969 2.11851 78.0123 2.10658C78.7664 1.90035 79.5089 1.6614 80.2214 1.33747C80.9581 1.00238 81.6522 0.598043 82.2683 0.0661106C82.321 0.0209585 82.4295 -0.0168402 82.4789 0.00776519C82.5273 0.0323706 82.5594 0.144743 82.5518 0.213232C82.5078 0.612499 82.4313 1.00796 82.4025 1.40723C82.3442 2.21844 82.2789 3.03017 82.2708 3.8419C82.2501 5.77837 82.2607 8.91136 82.2582 10.8473V10.9962H82.287Z" fill="#214186"/>
<path d="M98.9312 4.31198C98.9029 4.60927 98.8765 4.9086 98.8416 5.20615C98.7254 6.20888 98.6872 7.21364 98.6778 8.22017V8.16741H98.6652C98.6652 9.21301 98.6596 10.9245 98.6596 11.9693C98.6596 16.3052 96.7679 17.6501 95.5858 18.4951C95.1554 18.8007 94.6803 19.0666 94.1578 19.2911C93.3622 19.6338 92.5271 19.8344 91.6642 19.8808C91.244 19.9029 90.8134 19.8978 90.3975 19.8243C90.3084 19.8085 90.1836 19.7532 90.1836 19.6893C90.1836 19.5678 90.5099 19.6125 90.6147 19.6295C91.0713 19.6997 91.527 19.7124 91.9793 19.6064C92.6689 19.4471 95.7131 17.7858 95.7131 11.9412C95.7131 10.2667 95.7212 9.73683 95.7131 8.06189C95.7106 7.68571 95.6792 7.308 95.621 6.93562C95.5587 6.5427 95.3668 6.21446 94.9496 6.1102C94.7532 6.06124 94.5393 6.07697 94.3335 6.06809C94.2712 6.06555 94.2072 6.09067 94.1469 6.08255C94.0976 6.07697 94.053 6.03842 94.0065 6.01533C94.0459 5.97551 94.0794 5.91285 94.127 5.89839C94.3165 5.84106 94.5097 5.80022 94.7003 5.74797C95.8561 5.43368 96.9849 5.04887 98.0503 4.48853C98.2027 4.40761 98.3495 4.31451 98.4996 4.22776C98.5586 4.1925 98.6163 4.15597 98.6778 4.12959C98.854 4.04918 98.9494 4.11843 98.9312 4.31198Z" fill="#214186"/>
<path d="M95.8242 2.90787C95.205 2.4741 95.0544 1.619 95.4873 0.998283C95.9202 0.377822 96.7735 0.226893 97.3929 0.660658C98.0121 1.09468 98.1627 1.94978 97.7298 2.57024C97.2967 3.1907 96.4434 3.34163 95.8242 2.90787Z" fill="#214186"/>
<path d="M128.922 10.8028C129.111 10.4525 129.277 10.0811 129.497 9.74449C130.133 8.7727 131.004 8.09415 132.123 7.7654C132.669 7.60433 133.232 7.57414 133.801 7.63324C134.255 7.68119 134.697 7.76591 135.114 7.95971C135.857 8.30545 136.334 8.90156 136.604 9.65469C136.8 10.2029 136.941 10.7721 137.088 11.3365C137.269 12.0287 137.356 12.3833 137.524 13.0781C137.726 13.9094 137.919 14.7424 138.131 15.5706C138.289 16.1916 138.382 16.8331 138.655 17.4209C138.717 17.5556 138.801 17.6837 138.895 17.7981C139.17 18.1309 139.574 18.1489 139.883 17.8498C140.133 17.6083 140.276 17.3027 140.386 16.9795C140.579 16.4098 140.642 15.8202 140.643 15.2221C140.643 15.1506 140.653 15.077 140.673 15.009C140.681 14.9814 140.728 14.9481 140.756 14.9494C140.783 14.9499 140.816 14.987 140.833 15.0166C140.849 15.0435 140.85 15.0821 140.85 15.1153C140.833 16.2357 140.668 17.3227 140.099 18.3117C139.761 18.8977 139.316 19.3807 138.688 19.6605C137.739 20.0823 136.84 19.9139 136.205 19.0022C135.846 18.4873 135.635 17.9069 135.484 17.3039C135.243 16.3484 135.012 15.3908 134.778 14.4337C134.546 13.4855 134.392 12.8788 134.157 11.9313C134.002 11.3038 133.851 10.6731 133.669 10.0527C133.422 9.20697 132.882 8.80771 132.001 8.77372C130.957 8.73237 130.219 9.23919 129.682 10.0905C129.278 10.73 129.064 11.4402 128.959 12.1842C128.926 12.413 128.915 12.6461 128.915 12.8777C128.913 14.572 128.913 16.2664 128.927 17.9604C128.929 18.2224 128.979 18.4923 129.053 18.7445C129.227 19.3436 129.639 19.6498 130.264 19.6868C130.327 19.6906 130.392 19.6851 130.45 19.7038C130.492 19.717 130.522 19.765 130.557 19.7974C130.52 19.8251 130.485 19.871 130.443 19.8781C130.368 19.8905 130.289 19.8799 130.212 19.8799C128.338 19.8799 126.465 19.8806 124.591 19.8806C124.543 19.8806 124.491 19.8938 124.447 19.8794C124.387 19.8591 124.333 19.819 124.276 19.7875C124.329 19.7523 124.38 19.695 124.438 19.6863C124.575 19.6643 124.717 19.6731 124.856 19.6566C125.447 19.5864 125.726 19.3368 125.836 18.7483C125.891 18.4545 125.931 18.1534 125.932 17.8554C125.939 15.5511 125.938 12.9952 125.928 10.6909C125.926 10.4294 125.868 10.1628 125.8 9.9081C125.68 9.46165 125.364 9.23792 124.91 9.21586C124.737 9.20774 124.564 9.23716 124.39 9.23666C124.341 9.23666 124.293 9.19201 124.244 9.1674C124.284 9.12707 124.317 9.06568 124.364 9.05122C125.11 8.82216 125.863 8.61594 126.603 8.37014C127.345 8.12383 128.057 7.80167 128.724 7.38693C128.786 7.34914 128.848 7.31084 128.913 7.28192C129.081 7.20759 129.17 7.26366 129.157 7.44401C129.139 7.7238 129.105 8.00309 129.083 8.28288C129.026 9.01089 128.972 9.99105 128.919 10.7198C128.916 10.7525 128.922 10.7865 128.922 10.8028Z" fill="#214186"/>
<path d="M117.847 13.1424V13.1348C118.735 13.1021 119.622 13.0663 120.51 13.0412C120.65 13.0369 120.722 12.9796 120.769 12.8601C120.904 12.5255 120.943 12.1772 120.904 11.8213C120.855 11.3769 120.746 10.9475 120.58 10.5325C120.243 9.69057 119.774 8.93795 119.088 8.33702C118.756 8.04658 118.386 7.80001 117.938 7.77109C117.592 7.74903 117.234 7.77922 116.892 7.84416C116.315 7.95348 115.834 8.24773 115.471 8.72106C115.065 9.24868 114.895 9.86408 114.818 10.5086C114.714 11.3726 114.791 12.2264 114.99 13.0719C115.025 13.2173 115.083 13.2431 115.214 13.2381C116.091 13.202 116.97 13.1731 117.847 13.1424ZM123.693 11.3757C123.684 11.9566 123.579 12.5199 123.419 13.0757C123.389 13.1802 123.322 13.1909 123.234 13.1927C122.167 13.216 121.1 13.2368 120.033 13.267C118.45 13.3109 116.867 13.3623 115.284 13.4108C115.086 13.4171 115.084 13.4192 115.147 13.6033C115.717 15.2795 116.738 16.6067 118.236 17.5498C119.094 18.0899 120.031 18.4037 121.057 18.361C121.873 18.3271 122.641 18.1284 123.284 17.5876C123.402 17.489 123.505 17.372 123.615 17.2637C123.661 17.2191 123.706 17.1323 123.774 17.2079C123.8 17.236 123.782 17.338 123.75 17.3784C123.316 17.9171 122.808 18.3747 122.226 18.7481C120.956 19.5644 119.558 19.9556 118.059 19.8518C115.66 19.6857 113.873 18.5559 112.873 16.3163C112.446 15.3633 112.323 14.3496 112.397 13.3091C112.494 11.9395 112.972 10.723 113.839 9.66419C114.73 8.57648 115.863 7.85912 117.217 7.49181C118.069 7.26047 118.937 7.18894 119.813 7.30715C120.95 7.45985 121.966 7.87231 122.749 8.74821C123.319 9.38694 123.612 10.1472 123.671 10.999C123.68 11.1248 123.685 11.2506 123.693 11.3757Z" fill="#214186"/>
<path d="M105.281 13.1415V13.1338C106.173 13.1011 107.065 13.0666 107.958 13.039C108.079 13.0352 108.159 12.9918 108.186 12.883C108.246 12.641 108.328 12.397 108.34 12.1512C108.366 11.5923 108.217 11.0596 108.014 10.5434C107.683 9.699 107.213 8.94764 106.528 8.34417C106.194 8.04942 105.821 7.80032 105.367 7.77013C105.031 7.7468 104.683 7.77775 104.35 7.83939C103.674 7.96368 103.139 8.32464 102.768 8.91188C102.368 9.54502 102.249 10.2573 102.211 10.9874C102.175 11.6877 102.265 12.3764 102.418 13.0598C102.455 13.2206 102.521 13.2427 102.661 13.2371C103.535 13.2011 104.408 13.1722 105.281 13.1415ZM102.522 13.4276C102.705 14.0336 102.949 14.5782 103.261 15.0911C103.948 16.2209 104.852 17.1278 106.024 17.7521C106.96 18.2518 107.952 18.477 109.013 18.3121C109.812 18.1879 110.521 17.8804 111.063 17.2508C111.092 17.2171 111.163 17.2201 111.215 17.2062C111.206 17.2615 111.217 17.3327 111.187 17.3703C110.688 17.991 110.093 18.5014 109.407 18.9027C108.203 19.6061 106.899 19.9457 105.514 19.8526C103.109 19.6906 101.315 18.5681 100.308 16.3234C99.8805 15.3709 99.7557 14.3575 99.8278 13.317C99.9232 11.9432 100.403 10.7208 101.275 9.65892C102.166 8.57248 103.299 7.85511 104.653 7.48983C105.502 7.26077 106.364 7.18798 107.236 7.30542C108.473 7.47284 109.56 7.93806 110.349 8.95348C110.8 9.53386 111.034 10.2015 111.099 10.9321C111.163 11.6608 111.055 12.368 110.852 13.0666C110.82 13.1772 110.753 13.1899 110.659 13.1925C109.583 13.2155 108.506 13.2371 107.429 13.2673C105.861 13.3112 104.293 13.3616 102.724 13.4098C102.663 13.4119 102.603 13.4207 102.522 13.4276Z" fill="#214186"/>
<path d="M65.0181 26.8095C65.0181 40.4355 54.5945 51.08 40.9968 51.08H39.7157C36.9041 51.08 34.2851 50.4834 32.8742 50.0862C25.9079 48.1433 22.5811 43.8722 20.3644 38.7147C19.5769 36.8858 18.6018 33.2847 18.432 32.2909C18.3981 32.0859 18.6811 31.9614 18.7833 32.143C20.3589 34.9201 21.9065 38.0275 23.238 39.7314C26.2767 43.6106 30.8789 46.161 35.7197 47.1774C37.0967 47.4729 38.2475 47.6264 39.7157 47.6264H40.9968C52.4406 47.6264 61.4927 38.306 61.5094 26.8379L60.8126 3.51578H24.4414C21.1286 3.51578 19.9533 4.82875 19.1911 5.96415C18.9808 6.27793 18.5963 7.0658 18.4236 7.62843C18.3178 7.97417 18.2649 8.30571 18.2047 8.15656C17.9963 7.63781 17.706 4.89596 20.2685 2.32889C21.5866 1.01237 22.5842 0.523822 24.4759 0.225006C25.4963 0.063422 26.5296 0 27.5623 0H64.2076L65.0181 26.8095Z" fill="#EDCA67"/>
<path d="M14.661 33.4355C14.5299 34.1333 13.9596 34.6843 13.2574 34.7804C13.0855 34.8038 12.9085 34.8012 12.741 34.752C12.6268 34.7188 12.3463 34.6363 12.1375 34.3855C11.857 34.0448 11.9719 33.7158 11.818 33.2242C11.7755 33.0898 11.6682 32.7998 11.1505 32.2352C9.92836 30.9072 8.31689 29.8497 8.31689 29.8497C7.77746 29.47 7.27928 29.1004 6.80314 28.7803C5.2947 27.7649 5.10332 27.4838 4.91195 27.2154C4.11255 26.0912 4.3629 25.2229 4.895 24.6696C4.89196 24.6709 4.8955 24.6664 4.895 24.6696C5.46784 24.1572 6.35509 23.9295 7.44484 24.7739C7.70531 24.9751 7.9782 25.1782 8.93125 26.7286C9.23173 27.218 9.58257 27.7296 9.94025 28.2849C9.94025 28.2849 10.9315 29.9403 12.2089 31.2147C12.7516 31.7555 13.0366 31.8737 13.1695 31.9214C13.6527 32.0957 13.9859 31.9919 14.3139 32.2874C14.5569 32.5051 14.6278 32.7904 14.6572 32.9048C14.7 33.0778 14.6936 33.26 14.661 33.4355Z" fill="#EDCA67"/>
<path d="M12.2865 34.0215C12.3629 34.0738 12.429 34.2103 12.4409 34.314C12.4953 34.8277 12.5614 35.3418 12.5614 35.8555C12.5614 36.3943 12.5123 36.9356 12.446 37.4714C12.1969 39.5042 11.826 41.5049 11.1557 43.4188C10.9651 43.9651 10.7355 44.4933 10.5242 45.03C10.4971 45.0993 10.4832 45.1779 10.4475 45.3037C10.447 45.305 10.4475 45.3063 10.4487 45.3063C10.8069 45.3063 11.1319 45.3182 11.4552 45.2974C11.5228 45.2918 11.6045 45.1772 11.642 45.0912C11.7506 44.839 11.8392 44.5762 11.9777 44.3253C11.9275 44.6302 11.8754 44.9385 11.819 45.2817C11.8184 45.2829 11.819 45.2842 11.8202 45.2842H13.9172C13.9177 45.2842 13.919 45.2829 13.9185 45.2817C13.8671 44.9471 13.818 44.632 13.7696 44.3165C14.1248 45.3841 14.2498 45.4904 14.9611 45.2532C14.9619 45.2532 14.9624 45.252 14.9624 45.2507L14.8371 44.8033C15.068 45.337 15.4444 45.413 15.9286 45.2654C15.9294 45.2654 15.9299 45.2642 15.9299 45.2629C15.9068 45.1792 15.8937 45.0904 15.8603 45.0156C14.8928 42.8655 14.369 40.561 14.0407 38.1895C13.946 37.5041 13.8683 36.5511 13.8149 35.8593C13.7954 35.6204 13.8043 33.7303 14.1005 33.3701" fill="#EDCA67"/>
<path d="M20.1577 27.9169C20.1101 29.0021 19.219 29.8503 18.1455 29.8503C18.1166 29.8503 18.086 29.8503 18.0577 29.8478C16.9459 29.7981 16.0832 28.8575 16.1308 27.7434C16.1761 26.6914 17.015 25.8622 18.0432 25.8125H18.2308C19.3426 25.8622 20.2053 26.8028 20.1577 27.9169Z" fill="#EDCA67"/>
<path d="M19.8374 21.3817C19.7898 22.4669 18.8987 23.3152 17.8252 23.3152C17.7963 23.3152 17.7657 23.3152 17.7373 23.3126C16.6256 23.2629 15.7629 22.3223 15.8105 21.2082C15.8558 20.1563 16.6947 19.3271 17.7229 19.2773H17.9105C19.0223 19.3271 19.8849 20.2677 19.8374 21.3817Z" fill="#EDCA67"/>
<path d="M19.4253 14.8407C19.3777 15.9259 18.4866 16.7741 17.4131 16.7741C17.3842 16.7741 17.3536 16.7741 17.3252 16.7716C16.2135 16.7219 15.3508 15.7813 15.3984 14.6672C15.4437 13.6153 16.2826 12.786 17.3108 12.7363H17.4984C18.6102 12.786 19.4728 13.7266 19.4253 14.8407Z" fill="#EDCA67"/>
<path d="M16.1967 9.74111C16.1491 10.8263 15.2581 11.6745 14.1846 11.6745C14.1557 11.6745 14.1251 11.6745 14.0967 11.672C12.9849 11.6223 12.1223 10.6817 12.1698 9.56761C12.2152 8.51566 13.054 7.68644 14.0823 7.63672H14.2699C15.3816 7.68644 16.2443 8.62702 16.1967 9.74111Z" fill="#EDCA67"/>
<path d="M10.8881 7.5956C10.8406 8.68078 9.94951 9.52903 8.87596 9.52903C8.8471 9.52903 8.81648 9.52903 8.78813 9.52649C7.67635 9.47677 6.81366 8.53619 6.86125 7.4221C6.90656 6.37016 7.74546 5.54093 8.77369 5.49121H8.96127C10.073 5.54093 10.9357 6.48151 10.8881 7.5956Z" fill="#EDCA67"/>
<path d="M6.30025 10.6776C6.25266 11.7628 5.36162 12.6111 4.28807 12.6111C4.25921 12.6111 4.22859 12.6111 4.20023 12.6085C3.08846 12.5588 2.22577 11.6182 2.27336 10.5041C2.31867 9.45219 3.15757 8.62296 4.1858 8.57324H4.37338C5.48515 8.62296 6.34784 9.56354 6.30025 10.6776Z" fill="#EDCA67"/>
<path d="M4.02877 15.788C3.98118 16.8732 3.09014 17.7214 2.01658 17.7214C1.98773 17.7214 1.9571 17.7214 1.92875 17.7189C0.816976 17.6692 -0.0457116 16.7286 0.00187798 15.6145C0.0471894 14.5625 0.886081 13.7333 1.91432 13.6836H2.10189C3.21367 13.7333 4.07636 14.6739 4.02877 15.788Z" fill="#EDCA67"/>
<path d="M5.25338 21.2489C5.20579 22.3341 4.31475 23.1823 3.2412 23.1823C3.21234 23.1823 3.18172 23.1824 3.15337 23.1798C2.04159 23.1301 1.1789 22.1895 1.22649 21.0754C1.2718 20.0235 2.1107 19.1942 3.13894 19.1445H3.32651C4.43828 19.1942 5.30097 20.1348 5.25338 21.2489Z" fill="#EDCA67"/>
</svg>
